<svg width="32" height="32" viewBox="0 0 32 32" fill="none" xmlns="http://www.w3.org/2000/svg">
<path d="M5.04117 5.03969L5.04106 5.0398C2.13423 7.94672 0.500831 11.8891 0.5 16L5.04117 5.03969ZM5.04117 5.03969C7.94482 2.1341 11.8901 0.5 16 0.5C20.1099 0.5 24.0552 2.1341 26.9588 5.03969L26.959 5.03983C29.8652 7.94559 31.5 11.8909 31.5 16C31.5 20.1091 29.8652 24.0544 26.959 26.9602L26.9588 26.9603C24.0552 29.8659 20.1099 31.5 16 31.5C11.8901 31.5 7.94482 29.8659 5.04117 26.9603L5.04102 26.9602M5.04117 5.03969L5.04102 26.9602M5.04102 26.9602C2.1348 24.0544 0.500026 20.1091 0.5 16.0001L5.04102 26.9602Z" stroke="white"/>
<path d="M13.633 15.0048C14.2639 15.6121 15.1157 15.95 16 15.95C16.4383 15.95 16.8727 15.8669 17.2785 15.7051C17.6845 15.5433 18.0545 15.3056 18.367 15.0048C18.6796 14.7039 18.9287 14.3457 19.0989 13.95C19.2692 13.5543 19.3571 13.1295 19.3571 12.7C19.3571 11.8317 18.9986 11.0031 18.367 10.3952C17.7361 9.78795 16.8843 9.45 16 9.45C15.1157 9.45 14.2639 9.78795 13.633 10.3952C13.0014 11.0031 12.6429 11.8317 12.6429 12.7C12.6429 13.5683 13.0014 14.3969 13.633 15.0048ZM16 26.2567C15.7858 26.0169 15.4875 25.6767 15.1322 25.2554C14.3889 24.3738 13.3986 23.1398 12.4094 21.7286C11.4192 20.316 10.4366 18.7353 9.7033 17.1597C8.96672 15.5772 8.5 14.0387 8.5 12.7C8.5 10.7967 9.28535 8.96739 10.6899 7.61552C12.0951 6.26303 14.0048 5.5 16 5.5C17.9952 5.5 19.9049 6.26303 21.3101 7.61552C22.7147 8.96739 23.5 10.7967 23.5 12.7C23.5 14.0387 23.0333 15.5772 22.2967 17.1597C21.5634 18.7353 20.5808 20.316 19.5906 21.7286C18.6014 23.1398 17.6111 24.3738 16.8678 25.2554C16.5125 25.6767 16.2142 26.0169 16 26.2567Z" stroke="white"/>
</svg>
