<svg width="32" height="32" viewBox="0 0 32 32" fill="none" xmlns="http://www.w3.org/2000/svg">
<path d="M7.5 21.225V13.4194L15.701 18.7292L15.7157 18.7387L15.7309 18.7472L15.8411 18.808L15.8547 18.8155L15.8686 18.8221C16.0659 18.9157 16.2818 18.9641 16.5 18.9641C16.7183 18.9641 16.9342 18.9157 17.1314 18.8221L17.1454 18.8155L17.1589 18.808L17.2691 18.7472L17.2844 18.7387L17.299 18.7292L25.5 13.4194V21.2323C25.5001 21.8062 25.2744 22.3611 24.8649 22.7829C24.4565 23.2035 23.8958 23.4598 23.2958 23.4958L23.1431 23.5H9.85H9.84998C9.24615 23.5 8.66764 23.2759 8.23232 22.8772C7.7993 22.4807 7.54074 21.9421 7.5043 21.3718L7.5 21.225Z" stroke="white"/>
<path d="M23.4597 8.5C24.1884 8.5 24.8573 8.8525 25.3187 9.43437L16.5 15.8807L7.68138 9.4344C7.85289 9.2183 8.05326 9.03382 8.27476 8.88731C8.60998 8.66559 8.98491 8.53645 9.3687 8.50692L9.54984 8.5H23.4597Z" stroke="white"/>
<path d="M5.04117 5.03969L5.04106 5.0398C2.13423 7.94672 0.500831 11.8891 0.5 16L5.04117 5.03969ZM5.04117 5.03969C7.94482 2.1341 11.8901 0.5 16 0.5C20.1099 0.5 24.0552 2.1341 26.9588 5.03969L26.959 5.03983C29.8652 7.94559 31.5 11.8909 31.5 16C31.5 20.1091 29.8652 24.0544 26.959 26.9602L26.9588 26.9603C24.0552 29.8659 20.1099 31.5 16 31.5C11.8901 31.5 7.94482 29.8659 5.04117 26.9603L5.04102 26.9602M5.04117 5.03969L5.04102 26.9602M5.04102 26.9602C2.1348 24.0544 0.500026 20.1091 0.5 16.0001L5.04102 26.9602Z" stroke="white"/>
</svg>
