<svg width="24" height="24" viewBox="0 0 24 24" fill="none" xmlns="http://www.w3.org/2000/svg">
<path d="M3.8693 3.86812L3.86918 3.86824C1.7125 6.02499 0.500623 8.94995 0.5 12L3.8693 3.86812ZM3.8693 3.86812C6.02357 1.71241 8.95068 0.5 12 0.5C15.0493 0.5 17.9764 1.71241 20.1307 3.86812L20.1309 3.86827C22.2871 6.02415 23.5 8.95135 23.5 12C23.5 15.0486 22.2871 17.9758 20.1309 20.1317L20.1307 20.1319C17.9764 22.2876 15.0493 23.5 12 23.5C8.95068 23.5 6.02357 22.2876 3.8693 20.1319L3.86915 20.1317M3.8693 3.86812L3.86915 20.1317M3.86915 20.1317C1.71293 17.9759 0.500026 15.0487 0.5 12.0001L3.86915 20.1317Z" stroke="white"/>
<path d="M17.8947 19C18.1879 19 18.469 18.8836 18.6763 18.6763C18.8836 18.469 19 18.1879 19 17.8947V15.3158C19 15.0227 18.8836 14.7415 18.6763 14.5343C18.469 14.327 18.1879 14.2105 17.8947 14.2105C17.0326 14.2105 16.1853 14.0779 15.3747 13.8053C15.181 13.7441 14.9741 13.7372 14.7767 13.7852C14.5792 13.8333 14.3987 13.9345 14.2547 14.0779L13.1937 15.1389C11.3606 14.1386 9.85408 12.632 8.85368 10.7989L9.90737 9.74526C10.2095 9.45789 10.32 9.03053 10.1874 8.61789C9.92211 7.81474 9.78947 6.96737 9.78947 6.10526C9.78947 5.81213 9.67303 5.531 9.46575 5.32372C9.25847 5.11645 8.97734 5 8.68421 5H6.10526C5.81213 5 5.531 5.11645 5.32372 5.32372C5.11645 5.531 5 5.81213 5 6.10526C5 13.2158 10.7842 19 17.8947 19ZM6.10526 5.73684H8.68421C8.78192 5.73684 8.87563 5.77566 8.94472 5.84475C9.01382 5.91384 9.05263 6.00755 9.05263 6.10526C9.05263 7.04842 9.2 7.96947 9.48737 8.84632C9.52421 8.94947 9.51684 9.09684 9.39895 9.21474L7.94737 10.6589C9.16316 13.0389 10.9463 14.8221 13.3337 16.0526L14.7705 14.6011C14.8737 14.4979 15.0137 14.4684 15.1463 14.5053C16.0305 14.8 16.9516 14.9474 17.8947 14.9474C17.9924 14.9474 18.0862 14.9862 18.1552 15.0553C18.2243 15.1244 18.2632 15.2181 18.2632 15.3158V17.8947C18.2632 17.9924 18.2243 18.0862 18.1552 18.1552C18.0862 18.2243 17.9924 18.2632 17.8947 18.2632C11.1895 18.2632 5.73684 12.8105 5.73684 6.10526C5.73684 6.00755 5.77566 5.91384 5.84475 5.84475C5.91384 5.77566 6.00755 5.73684 6.10526 5.73684Z" fill="white"/>
</svg>
