<svg width="24" height="24" viewBox="0 0 24 24" fill="none" xmlns="http://www.w3.org/2000/svg">
<g clip-path="url(#clip0_127_49)">
<path d="M3.8693 3.86812L3.86918 3.86824C1.7125 6.02499 0.500623 8.94995 0.5 12L3.8693 3.86812ZM3.8693 3.86812C6.02357 1.71241 8.95068 0.5 12 0.5C15.0493 0.5 17.9764 1.71241 20.1307 3.86812L20.1309 3.86827C22.2871 6.02415 23.5 8.95135 23.5 12C23.5 15.0486 22.2871 17.9758 20.1309 20.1317L20.1307 20.1319C17.9764 22.2876 15.0493 23.5 12 23.5C8.95068 23.5 6.02357 22.2876 3.8693 20.1319L3.86915 20.1317M3.8693 3.86812L3.86915 20.1317M3.86915 20.1317C1.71293 17.9759 0.500026 15.0487 0.5 12.0001L3.86915 20.1317Z" stroke="white"/>
<path d="M5.62411 12.3347L5.61661 12.3377C5.4027 12.4227 5.25017 12.4994 5.14726 12.5643C5.28504 12.6257 5.45987 12.6808 5.6889 12.753C5.78023 12.7818 5.88018 12.8134 5.98983 12.8491C6.28946 12.9464 6.63729 13.0508 6.95896 13.1314C7.29246 13.215 7.55835 13.2627 7.71134 13.266L7.71141 13.266C7.95643 13.2713 8.28647 13.1703 8.71848 12.8732L8.72218 12.8706L8.72219 12.8706C10.3575 11.7673 11.598 10.9358 12.4435 10.3769C12.866 10.0976 13.1919 9.885 13.42 9.74012C13.5335 9.66798 13.6261 9.61051 13.6956 9.56938C13.7299 9.54909 13.7631 9.5301 13.7926 9.51454C13.793 9.51435 13.7936 9.51404 13.7943 9.51363C13.8073 9.5066 13.8762 9.46939 13.9546 9.45174L5.62411 12.3347ZM5.62411 12.3347L5.63152 12.3314M5.62411 12.3347L5.63152 12.3314M5.63152 12.3314C9.13076 10.8072 11.4594 9.8041 12.6213 9.32048L5.63152 12.3314ZM17.0635 8.11352L17.0638 8.1102C17.0685 8.06374 17.0688 7.99805 17.0646 7.92599C17.0608 7.85902 17.0541 7.80201 17.0495 7.77232C17.0475 7.76153 17.0457 7.75347 17.0441 7.74697C17.0343 7.74319 17.0216 7.73915 17.0061 7.73545C16.9867 7.73081 16.9668 7.7276 16.9486 7.72568C16.93 7.72372 16.9178 7.72359 16.9149 7.72364L16.9068 7.2237M17.0635 8.11352L12.6215 9.32041C14.2901 8.62659 15.2858 8.22439 15.9194 7.9945C16.5615 7.7615 16.7796 7.72608 16.9159 7.72362L16.9068 7.2237M17.0635 8.11352C16.8859 9.98543 16.1082 14.5691 15.7104 16.6963L15.7102 16.6969M17.0635 8.11352L15.7102 16.6969M16.9068 7.2237C17.0062 7.22211 17.2275 7.24667 17.3718 7.36339M16.9068 7.2237L17.3718 7.36339M17.3718 7.36339C17.4918 7.46183 17.5256 7.59495 17.5425 7.68842L17.3718 7.36339ZM15.7102 16.6969C15.6344 17.1058 15.5301 17.3226 15.4501 17.429C15.383 17.5184 15.3428 17.5202 15.3372 17.5204C15.337 17.5204 15.3369 17.5204 15.3368 17.5205L15.3367 17.5205M15.7102 16.6969L15.3367 17.5205M15.3367 17.5205C15.1354 17.539 14.9366 17.4785 14.6767 17.3257M15.3367 17.5205L14.6767 17.3257M14.6767 17.3257C14.5452 17.2485 14.4095 17.1547 14.2545 17.0446M14.6767 17.3257L14.2545 17.0446M14.2545 17.0446C14.23 17.0272 14.2048 17.0093 14.1792 16.991M14.2545 17.0446L14.1792 16.991M14.1792 16.991C14.0485 16.8978 13.905 16.7955 13.7555 16.6975L14.1792 16.991ZM5.0115 12.671C5.01145 12.671 5.01189 12.6704 5.01292 12.6691C5.01206 12.6704 5.01154 12.671 5.0115 12.671ZM14.2689 10.3942C14.2687 10.3945 14.2652 10.3963 14.259 10.3991L14.259 10.3991C14.266 10.3954 14.2691 10.394 14.2689 10.3942ZM14.7844 10.4613C14.7993 10.4361 14.8356 10.373 14.855 10.2893L11.0788 14.8991C10.8087 14.7211 10.7182 14.6051 10.6926 14.5559C10.6894 14.5499 10.6873 14.5491 10.6869 14.5478C10.6864 14.5463 10.6882 14.544 10.6934 14.5323C10.7181 14.4761 10.7827 14.3876 10.9272 14.2407C10.9878 14.1791 11.0533 14.1159 11.1271 14.0448C11.1366 14.0356 11.1463 14.0262 11.1561 14.0168C11.2397 13.9361 11.3313 13.8471 11.4227 13.7522L11.4231 13.7518C11.4225 13.7525 11.4258 13.7491 11.4358 13.7393L11.4725 13.7041C11.5032 13.6749 11.5441 13.6365 11.5943 13.5896C11.686 13.5038 11.806 13.3922 11.9461 13.262L11.9856 13.2252C12.2992 12.9336 12.7027 12.5582 13.1029 12.1803C13.5023 11.8031 13.9017 11.4202 14.2063 11.1142C14.3578 10.9619 14.4909 10.8236 14.59 10.7122C14.639 10.6572 14.6857 10.6021 14.7238 10.5512C14.7427 10.5259 14.7644 10.4951 14.7844 10.4613ZM14.6435 9.58959C14.4876 9.45084 14.3099 9.42284 14.1942 9.42192C14.0899 9.42108 13.9964 9.44227 13.9593 9.45068C13.9577 9.45105 13.9562 9.45138 13.9548 9.4517L14.6435 9.58959ZM13.7553 16.6973C13.2314 16.3537 12.8215 16.075 12.4127 15.7965L12.368 15.7661C11.9739 15.4976 11.5765 15.227 11.0788 14.8991L13.7553 16.6973Z" stroke="white"/>
</g>
<defs>
<clipPath id="clip0_127_49">
<rect width="24" height="24" fill="white"/>
</clipPath>
</defs>
</svg>
