<svg width="24" height="24" viewBox="0 0 24 24" fill="none" xmlns="http://www.w3.org/2000/svg">
<path d="M18.9384 14.4515L15.0982 12.5313C15.0226 12.4937 14.9384 12.4766 14.8541 12.4819C14.7698 12.4871 14.6884 12.5146 14.6181 12.5613L12.6212 13.8934C11.5235 13.367 10.6382 12.4818 10.1118 11.3841L11.4439 9.3871C11.4907 9.3168 11.5181 9.2354 11.5233 9.15111C11.5286 9.06683 11.5116 8.98265 11.4739 8.90707L9.55374 5.06678C9.51391 4.98662 9.45246 4.91919 9.37633 4.87211C9.3002 4.82504 9.21242 4.80018 9.12291 4.80036C7.97709 4.80036 6.8782 5.25553 6.06798 6.06575C5.25777 6.87597 4.80259 7.97486 4.80259 9.12068C4.80545 11.7934 5.86844 14.3558 7.75833 16.2457C9.64822 18.1356 12.2106 19.1986 14.8833 19.2014C16.0292 19.2014 17.1281 18.7463 17.9383 17.936C18.7485 17.1258 19.2037 16.0269 19.2037 14.8811C19.2037 14.7919 19.1789 14.7045 19.1321 14.6286C19.0853 14.5527 19.0182 14.4914 18.9384 14.4515ZM14.8833 18.2414C12.4652 18.2388 10.1468 17.2771 8.43685 15.5672C6.72694 13.8573 5.7652 11.5389 5.76266 9.12068C5.76252 8.27966 6.07775 7.46917 6.64611 6.84926C7.21447 6.22936 7.99462 5.84512 8.83249 5.77243L10.4886 9.08588L9.16851 11.0708C9.12452 11.1363 9.09734 11.2116 9.08938 11.2901C9.08143 11.3686 9.09295 11.4479 9.12291 11.5209C9.7607 13.0371 10.9669 14.2433 12.4832 14.8811C12.5562 14.9115 12.6356 14.9233 12.7144 14.9155C12.7931 14.9078 12.8687 14.8807 12.9344 14.8367L14.9193 13.5166L18.2328 15.1727C18.1598 16.0106 17.7753 16.7906 17.1551 17.3588C16.535 17.9269 15.7244 18.2418 14.8833 18.2414ZM12.0031 2.07335e-07C9.91387 -0.000388099 7.86071 0.544658 6.04674 1.58123C4.23276 2.61779 2.72083 4.10997 1.66048 5.91015C0.60013 7.71032 0.0281136 9.75613 0.00101012 11.8452C-0.0260933 13.9343 0.492655 15.9942 1.50594 17.8213L0.0778362 22.1045C-0.00678401 22.3582 -0.0190642 22.6305 0.0423717 22.8908C0.103808 23.1511 0.236532 23.3892 0.425668 23.5784C0.614805 23.7675 0.852879 23.9002 1.11321 23.9617C1.37354 24.0231 1.64583 24.0108 1.89957 23.9262L6.18269 22.4981C7.78487 23.3858 9.56901 23.8951 11.3984 23.9867C13.2278 24.0784 15.0539 23.7501 16.7368 23.027C18.4197 22.3039 19.9148 21.2052 21.1075 19.8149C22.3001 18.4247 23.1587 16.78 23.6175 15.0067C24.0763 13.2334 24.123 11.3786 23.7542 9.58438C23.3854 7.79021 22.6107 6.10427 21.4896 4.65573C20.3685 3.2072 18.9307 2.03451 17.2864 1.22751C15.6421 0.420507 13.8348 0.000614487 12.0031 2.07335e-07ZM12.0031 23.0417C10.0619 23.0423 8.15492 22.5311 6.47431 21.5596C6.40128 21.5176 6.31857 21.4952 6.2343 21.4948C6.18245 21.4948 6.13096 21.5033 6.08188 21.52L1.59595 23.0153C1.51137 23.0435 1.4206 23.0476 1.33383 23.0271C1.24705 23.0067 1.16769 22.9624 1.10465 22.8994C1.0416 22.8363 0.997361 22.757 0.976883 22.6702C0.956404 22.5834 0.960498 22.4927 0.988705 22.4081L2.48402 17.9221C2.50559 17.8577 2.51321 17.7893 2.50638 17.7217C2.49955 17.654 2.47843 17.5886 2.44441 17.5297C1.22717 15.4256 0.738311 12.9787 1.05369 10.5684C1.36906 8.15819 2.47104 5.91938 4.18866 4.19934C5.90629 2.4793 8.14354 1.37418 10.5533 1.05542C12.9632 0.736652 15.4108 1.22207 17.5166 2.43635C19.6223 3.65064 21.2685 5.52592 22.1997 7.77128C23.1309 10.0166 23.2951 12.5065 22.6668 14.8547C22.0385 17.2029 20.6528 19.2781 18.7247 20.7584C16.7966 22.2387 14.4339 23.0413 12.0031 23.0417Z" fill="#F8F8F8"/>
</svg>
