<svg width="116" height="81" viewBox="0 0 116 81" fill="none" xmlns="http://www.w3.org/2000/svg">
<path fill-rule="evenodd" clip-rule="evenodd" d="M79.423 36.4861C83.0093 33.9496 97.4467 22.1691 93.8227 17.3744C90.5978 13.1073 79.0232 18.9306 76.2167 20.5853C69.7424 24.4028 52.1904 38.5532 51.4118 45.0388C51.1485 47.2337 55.6021 47.2025 56.9841 46.9339C61.4213 46.0715 74.948 37.7406 73.1882 47.3491L73.3408 47.2449C74.7027 46.3212 79.0063 43.7616 79.9057 42.9065C79.8542 42.9572 79.8471 42.9721 79.8197 43.0233C79.9138 42.9358 80.0083 42.8545 80.103 42.7808L80.8168 43.4968C80.6852 43.7218 80.6533 43.7367 80.4399 43.8958L80.429 43.904L78.3865 46.8685C77.3492 48.8272 76.2305 51.9203 75.0475 54.828C77.0603 52.16 80.5877 48.0142 80.9988 51.8203C83.552 49.6935 86.8345 47.3466 88.5635 45.5449C89.4127 43.7363 90.213 42.6703 90.7391 43.347C91.2037 43.9444 90.8257 44.7527 89.964 45.6965C88.6722 48.7087 86.4787 53.7788 85.8855 56.3514C88.7903 53.0928 91.3093 47.9622 90.9912 54.9716C91.5199 54.7567 92.5928 53.9896 93.6882 53.055C93.559 50.5315 94.7407 47.3591 96.469 47.4128C100.197 47.7508 96.5447 51.8242 95.4496 52.9413C95.2318 53.1636 95.0223 53.3722 94.8211 53.5687C95.1062 55.0809 96.1811 55.8094 98.4457 53.5992C99.9955 52.0868 100.308 50.4903 100.749 48.4916C100.793 48.1906 101.077 47.9829 101.381 48.0274C101.685 48.0719 101.896 48.3521 101.851 48.6532C101.282 51.2287 100.71 53.4841 98.3608 55.0947C95.7914 56.8562 94.4241 56.0482 93.9148 54.4175C89.1979 58.6322 89.9161 54.467 89.9688 52.9179C88.601 54.3629 85.166 60.1173 84.6393 57.6482C84.5659 57.3036 86.0281 51.9266 87.6077 47.8188C85.5417 49.4847 82.9291 51.3445 81.0283 53.1353C80.7679 59.389 76.046 60.1847 77.5119 55.642C77.7633 54.8632 78.6673 53.8727 79.8777 52.7862C79.874 52.376 79.83 51.984 79.7387 51.6304C78.005 53.1019 75.0786 56.6355 72.5853 60.1841C71.0175 63.342 69.7873 65.8873 68.2696 69.394C67.8296 70.4108 64.2614 70.319 71.641 59.5581C71.9038 59.0455 72.1682 58.5251 72.4332 57.9935C73.9966 54.8567 75.8468 49.3348 77.8596 45.733C76.2012 46.8694 74.4785 47.984 72.7471 49.1286C72.696 49.2973 72.6429 49.4687 72.5847 49.6458C70.9472 54.6278 59.7539 72.9157 53.619 69.5408C47.6473 66.2555 66.024 52.4383 71.8803 48.2664C75.18 37.8201 59.8406 49.4151 53.6781 48.1323C44.8872 46.3023 56.1451 35.7131 58.6032 33.2152C64.7886 26.9296 84.8747 10.0759 93.7627 15.8431C101.2 20.669 83.7221 34.8004 80.051 37.3967C79.797 37.5681 79.4504 37.5033 79.2769 37.2518C79.1034 37.0004 79.1688 36.6575 79.423 36.4861ZM94.7638 52.0862C96.5123 50.4201 97.8466 48.6421 96.3811 48.5089C95.5128 48.8928 94.8887 50.5453 94.7638 52.0862ZM96.469 47.4128C96.4759 47.4131 96.4824 47.4122 96.4893 47.4126L96.4182 47.4077C96.4357 47.4092 96.4519 47.4113 96.469 47.4128ZM79.6777 54.5566C78.8984 55.5041 78.4321 56.4099 78.4849 57.231C78.9996 56.6334 79.4368 55.6291 79.6777 54.5566ZM71.1682 50.1815C69.7284 51.1525 68.294 52.1551 66.8969 53.2198C65.1755 54.5315 50.4988 66.5686 54.1585 68.5769C58.5851 71.0061 67.8099 57.0024 69.6138 53.4854C70.2525 52.2404 70.7655 51.1452 71.1682 50.1815Z" fill="white"/>
<path fill-rule="evenodd" clip-rule="evenodd" d="M36.6136 51.8473C36.2569 54.1098 35.9775 56.3558 35.4455 58.5646C37.6227 55.4222 41.4319 50.1784 40.5197 56.1669C40.468 56.5064 40.3661 57.0446 40.3829 57.462C41.9071 56.3386 46.4468 49.3518 45.0241 56.6892C44.9324 57.1615 44.5049 58.9949 44.5512 59.8467C45.2179 58.9413 47.985 55.1398 49.9468 53.1176C50.3324 52.1429 50.911 51.2831 51.86 50.7964C57.2778 48.018 58.0799 56.9527 52.2614 59.3883C49.4813 60.5522 49.0933 59.0146 49.4164 57.0887C49.203 56.9794 49.0771 56.7454 49.1222 56.5031C49.1777 56.2157 49.2327 55.9102 49.2925 55.5951C47.6587 57.7429 45.9803 60.2665 45.3039 60.7985C42.6738 62.8665 43.5497 57.515 44.0169 55.2369C38.2403 61.916 39.5074 57.5199 39.5976 54.9737C37.8053 56.89 34.5683 63.2128 33.7245 61.1375C33.6579 60.9736 35.4535 51.9337 35.4775 51.7814C35.4958 51.4776 35.7649 51.246 36.0785 51.2643C36.3922 51.2826 36.6317 51.5435 36.6136 51.8473ZM51.9487 52.0762C51.9839 52.1999 51.9913 52.3748 51.9662 52.6073C51.8324 53.8519 48.0858 60.7437 52.4058 58.066C56.1436 55.7489 56.0782 49.8808 52.3956 51.7696C52.2336 51.8527 52.0853 51.9563 51.9487 52.0762Z" fill="white"/>
<path fill-rule="evenodd" clip-rule="evenodd" d="M30.8337 41.7482C30.3747 46.0598 25.0478 59.9257 26.5197 62.0248C27.6582 63.6485 34.133 56.1386 34.4164 55.8097C34.6131 55.5727 34.9712 55.5357 35.2163 55.7266C35.4614 55.9177 35.5003 56.2645 35.3035 56.5014C33.8322 58.2083 29.7823 63.3123 26.9112 63.3013C21.972 63.2828 29.1814 46.0095 29.7193 41.9688C29.6557 41.6708 29.8536 41.3796 30.1615 41.3187C30.4692 41.2578 30.7701 41.45 30.8337 41.7482Z" fill="white"/>
<path fill-rule="evenodd" clip-rule="evenodd" d="M24.0354 53.2555C26.8798 52.1478 29.3505 50.7447 32.0003 49.2753C32.2532 49.0952 32.6094 49.1479 32.7959 49.3932C32.9825 49.6383 32.9286 49.9833 32.6757 50.1634C29.6284 51.8733 27.3362 53.2343 23.9698 54.3556C23.6561 54.3375 23.4165 54.0766 23.4346 53.7728C23.4526 53.469 23.7217 53.2375 24.0354 53.2555Z" fill="white"/>
<path fill-rule="evenodd" clip-rule="evenodd" d="M17.9282 66.5155C19.0901 60.6444 29.7709 30.9193 28.4216 28.0034C28.4177 27.9948 28.4131 27.986 28.4079 27.9773C24.1682 28.3159 8.70676 54.9515 6.69707 60.0664C6.51649 60.5261 6.32938 61.0143 6.1378 61.5248L6.29304 61.4459C10.6574 59.2029 15.6676 56.2234 20.0182 54.4268C20.3305 54.394 20.6115 54.6125 20.646 54.9152C20.6805 55.2176 20.4554 55.4894 20.143 55.5224C15.6661 57.745 11.2742 60.1344 6.82901 62.4189C6.41232 62.6331 5.99599 62.8298 5.58898 63.0129C4.75428 65.3136 3.87318 67.9052 3.09308 70.3262C2.85174 72.1942 2.04108 74.2165 1.58003 75.0973L0.722228 75.1152C0.673961 74.9895 0.682349 74.7397 0.737324 74.389L0.706386 74.3895L0.652717 74.4474C0.695207 74.3279 0.752413 74.1587 0.819129 73.9527C0.984616 73.1663 1.29957 72.0607 1.70378 70.7831C1.9863 69.5514 2.15216 68.4076 1.92778 68.0259C-2.25802 65.1361 1.16072 63.8287 4.72148 62.1995C5.71943 59.5408 6.5901 57.3526 6.88734 56.7139C8.56681 53.1049 26.3357 22.6158 29.3743 27.3973C31.3656 30.5309 20.2968 60.5136 19.0661 66.5144C19.0668 66.8186 18.813 67.0655 18.4988 67.0659C18.1846 67.0661 17.9291 66.8197 17.9282 66.5155ZM4.19483 63.6145C1.64694 64.6866 0.0293473 65.345 2.18552 66.853C2.44157 67.0322 2.63912 67.2645 2.78764 67.5364C3.23863 66.2387 3.72204 64.8965 4.19483 63.6145Z" fill="white"/>
<path fill-rule="evenodd" clip-rule="evenodd" d="M100.766 48.8563C101.565 45.2689 102.538 47.1648 103.698 48.0047C105.159 45.4319 107.643 45.2797 107.211 46.7195C106.423 49.3478 105.308 49.7129 104.312 49.3901C103.23 52.2893 103.198 56.0691 108.195 51.6189C107.987 49.3396 109.244 46.3388 111.832 45.8037C114.961 45.1571 112.35 49.1746 109.131 52.0317C109.35 53.1315 110.39 53.5754 112.84 52.114C113.804 51.539 114.395 50.9761 114.67 49.8524C114.709 49.5575 114.963 49.3514 115.238 49.3918C115.513 49.4324 115.704 49.7045 115.665 49.9994C115.42 51.0063 115.17 51.5891 114.385 52.2796C111.003 55.2518 109.05 54.492 108.409 52.6446C105.656 54.8707 102.741 55.9769 102.69 52.5251C102.668 51.0292 102.912 49.8105 103.298 48.8421C102.723 48.4266 102.278 47.9583 102.1 47.9224C101.907 48.1263 101.792 48.8777 101.756 49.0403C101.707 49.3339 101.447 49.5304 101.173 49.4795C100.9 49.4287 100.717 49.1498 100.766 48.8563ZM104.791 48.2994C105.192 48.1798 105.611 47.7625 106.05 46.8426C105.663 46.9238 105.201 47.5055 104.791 48.2994ZM109.169 50.7222C110.121 49.82 112.272 47.6778 112.176 46.8456C111.006 46.5589 109.534 48.8457 109.169 50.7222Z" fill="white"/>
<path d="M115.164 44.0827C115.178 44.4441 114.896 44.7488 114.535 44.763C114.173 44.7771 113.868 44.4955 113.854 44.1342C113.836 43.6907 113.804 42.561 113.772 41.3373C113.73 39.7596 113.688 38.0237 113.678 37.4394C113.481 26.7087 109.728 18.5728 104.03 12.77C100.074 8.74153 95.175 5.8297 89.8733 3.94976C84.555 2.06368 78.8349 1.21525 73.2546 1.31751C63.3057 1.50005 53.8124 4.6989 47.8476 10.4201L47.8185 14.6134C47.8172 14.9748 47.5226 15.2666 47.161 15.2653C46.7995 15.264 46.5075 14.9695 46.5088 14.6082L46.5418 9.86187L46.7348 9.67226C52.9285 3.5966 62.8552 0.198821 73.2341 0.00846145C78.9687 -0.09659 84.8459 0.77494 90.3098 2.71262C95.7908 4.65607 100.861 7.67256 104.965 11.851C110.885 17.8799 114.784 26.3147 114.988 37.4189C114.998 37.9849 115.04 39.7149 115.082 41.3063C115.113 42.4971 115.145 43.611 115.164 44.0827Z" fill="white"/>
<path d="M34.942 16.1691H60.5059L62.3442 26.8671H32.0684L34.4139 16.1691H34.942ZM59.3993 17.4834H35.4703L33.7012 25.5528H60.7859L59.3993 17.4834Z" fill="white"/>
<path d="M50.8008 28.0028C50.8008 27.64 51.0953 27.3457 51.4583 27.3457C51.8213 27.3457 52.1158 27.64 52.1158 28.0028C52.1158 28.8071 51.4883 29.4865 50.474 29.9341C49.6238 30.3093 48.463 30.5417 47.1946 30.5417C45.9263 30.5417 44.7654 30.3093 43.9153 29.9341C42.9009 29.4865 42.2734 28.8071 42.2734 28.0028C42.2734 27.64 42.5679 27.3457 42.9309 27.3457C43.2939 27.3457 43.5884 27.64 43.5884 28.0028C43.5884 28.2377 43.9156 28.4995 44.4441 28.7327C45.1365 29.0382 46.1083 29.2275 47.1946 29.2275C48.2809 29.2275 49.2528 29.0382 49.9451 28.7327C50.4736 28.4995 50.8008 28.2377 50.8008 28.0028Z" fill="white"/>
<path d="M113.44 56.674C113.44 56.3111 113.735 56.0168 114.098 56.0168C114.461 56.0168 114.755 56.3111 114.755 56.674V67.0604H74.7172C74.3542 67.0604 74.0597 66.7662 74.0597 66.4033C74.0597 66.0405 74.3542 65.7462 74.7172 65.7462H113.44V56.674ZM49.5198 65.7462C49.8828 65.7462 50.1773 66.0405 50.1773 66.4033C50.1773 66.7662 49.8828 67.0604 49.5198 67.0604H25.2805C24.9175 67.0604 24.623 66.7662 24.623 66.4033C24.623 66.0405 24.9175 65.7462 25.2805 65.7462H49.5198Z" fill="white"/>
<path d="M72.043 79.8015V70.7627H73.8486C74.483 70.7627 74.9517 70.7965 75.2547 70.8639C75.5556 70.9334 75.8162 71.0492 76.0323 71.2137C76.3091 71.4264 76.5232 71.7024 76.6745 72.0375C76.8262 72.3724 76.903 72.7412 76.903 73.1395C76.903 73.6176 76.7938 74.0158 76.5737 74.3362C76.3555 74.6584 76.0364 74.8817 75.6181 75.0103C76.1293 75.0924 76.5353 75.3327 76.8322 75.7289C77.1293 76.1269 77.2787 76.6285 77.2787 77.2331C77.2787 77.5956 77.2161 77.9411 77.0886 78.2696C76.9636 78.5984 76.7878 78.8808 76.5635 79.1168C76.3191 79.3675 76.0161 79.5444 75.6587 79.6476C75.299 79.751 74.695 79.8015 73.8486 79.8015H72.043ZM73.0489 75.5666V78.8661H73.8486C74.3961 78.8661 74.7921 78.8428 75.0344 78.7986C75.2768 78.7523 75.4708 78.6742 75.6181 78.5626C75.794 78.4319 75.9334 78.2486 76.0344 78.0126C76.1375 77.7789 76.1878 77.5196 76.1878 77.2351C76.1878 76.9043 76.1272 76.6179 76.004 76.3755C75.8829 76.1332 75.7051 75.9436 75.4727 75.8067C75.3356 75.7203 75.1758 75.6592 74.9941 75.6214C74.8143 75.5854 74.5316 75.5666 74.1498 75.5666H73.8486H73.0489ZM73.0489 71.6982V74.7195H73.8486C74.5821 74.7195 75.0991 74.6079 75.398 74.3867C75.6991 74.1654 75.8486 73.7904 75.8486 73.2637C75.8486 72.6842 75.709 72.2797 75.4302 72.0459C75.1537 71.814 74.6244 71.6982 73.8486 71.6982H73.0489ZM78.8179 70.7627H79.8602V76.3882C79.8602 77.3026 80.046 77.9726 80.4196 78.4004C80.7934 78.8281 81.3771 79.043 82.1749 79.043C82.9729 79.043 83.5566 78.8281 83.9304 78.4004C84.3041 77.9726 84.4899 77.3026 84.4899 76.3882V70.7627H85.5322V76.3882C85.5322 77.6103 85.2534 78.5246 84.6958 79.1315C84.1363 79.7383 83.2961 80.0417 82.1731 80.0417C81.0519 80.0417 80.2137 79.7383 79.654 79.1315C79.0966 78.5246 78.8179 77.6103 78.8179 76.3882V70.7627ZM87.5825 79.8015V70.7627H89.6186C90.1982 70.7627 90.6244 70.7965 90.8932 70.8639C91.1637 70.9334 91.4021 71.0492 91.6082 71.2137C91.8648 71.4223 92.0627 71.7045 92.2042 72.0563C92.3475 72.4082 92.4183 72.798 92.4183 73.2257C92.4183 73.9653 92.2202 74.5299 91.8244 74.9134C91.4265 75.299 90.8466 75.4906 90.081 75.4906H89.8972L93.2059 79.8015H91.8973L88.7338 75.4906H88.5885V79.8015H87.5825ZM88.5885 71.673V74.6944H89.3741C90.1801 74.6944 90.7195 74.5869 90.9921 74.3699C91.2649 74.1549 91.4002 73.7778 91.4002 73.2384C91.4002 72.6589 91.2607 72.2545 90.98 72.0206C90.6993 71.7889 90.1639 71.673 89.3741 71.673H88.5885ZM94.0685 79.8015V70.7627H98.6376V71.7488H95.0987V74.3403H98.6376V75.339H95.0987V78.8027H98.6376V79.8015H94.0685ZM103.12 72.7854L101.742 76.1101H104.5L103.12 72.7854ZM103.12 70.4089L107.061 79.8015H105.944L104.819 77.0329H101.435L100.31 79.8015H99.1953L103.12 70.4089ZM107.709 70.7627H108.752V76.3882C108.752 77.3026 108.938 77.9726 109.311 78.4004C109.685 78.8281 110.268 79.043 111.066 79.043C111.864 79.043 112.448 78.8281 112.822 78.4004C113.195 77.9726 113.381 77.3026 113.381 76.3882V70.7627H114.424V76.3882C114.424 77.6103 114.145 78.5246 113.587 79.1315C113.028 79.7383 112.187 80.0417 111.064 80.0417C109.943 80.0417 109.105 79.7383 108.545 79.1315C107.988 78.5246 107.709 77.6103 107.709 76.3882V70.7627Z" fill="white"/>
</svg>
