<svg width="220" height="153" viewBox="0 0 220 153" fill="none" xmlns="http://www.w3.org/2000/svg">
<path fill-rule="evenodd" clip-rule="evenodd" d="M150.866 69.3065C157.678 64.4883 185.102 42.1109 178.219 33.0032C172.093 24.8978 150.107 35.9592 144.775 39.1025C132.477 46.3538 99.1368 73.233 97.6578 85.5527C97.1576 89.722 105.617 89.6625 108.243 89.1524C116.671 87.5142 142.365 71.6894 139.023 89.941L139.313 89.7432C141.9 87.9886 150.074 83.1266 151.783 81.5023C151.685 81.5985 151.672 81.6268 151.62 81.7241C151.798 81.5578 151.978 81.4035 152.158 81.2634L153.513 82.6235C153.264 83.0509 153.203 83.0792 152.798 83.3814L152.777 83.3969L148.897 89.0281C146.927 92.7488 144.802 98.6242 142.555 104.147C146.378 99.0795 153.078 91.2044 153.859 98.4342C158.709 94.3944 164.944 89.9364 168.229 86.514C169.842 83.0785 171.362 81.0536 172.361 82.339C173.244 83.4737 172.526 85.0092 170.889 86.802C168.435 92.5238 164.269 102.154 163.142 107.041C168.659 100.851 173.444 91.1057 172.84 104.42C173.844 104.012 175.882 102.555 177.963 100.78C177.718 95.9862 179.962 89.9601 183.245 90.062C190.327 90.7042 183.389 98.4416 181.309 100.564C180.895 100.986 180.497 101.382 180.115 101.755C180.657 104.628 182.699 106.012 187 101.813C189.944 98.9405 190.537 95.908 191.375 92.1113C191.46 91.5395 191.998 91.145 192.576 91.2296C193.154 91.3141 193.553 91.8462 193.468 92.4184C192.388 97.3105 191.301 101.595 186.839 104.654C181.958 108 179.361 106.465 178.394 103.368C169.434 111.374 170.798 103.462 170.898 100.519C168.3 103.264 161.775 114.195 160.775 109.505C160.635 108.85 163.413 98.6362 166.413 90.8333C162.489 93.9978 157.526 97.5305 153.915 100.932C153.421 112.811 144.451 114.323 147.236 105.694C147.713 104.214 149.43 102.333 151.73 100.269C151.723 99.4899 151.639 98.7452 151.466 98.0736C148.172 100.869 142.614 107.581 137.878 114.322C134.899 120.32 132.563 125.155 129.68 131.816C128.844 133.748 122.066 133.573 136.084 113.132C136.583 112.159 137.085 111.17 137.589 110.16C140.558 104.202 144.073 93.7129 147.896 86.8713C144.746 89.0299 141.474 91.1471 138.185 93.3213C138.088 93.6418 137.987 93.9673 137.876 94.3038C134.766 103.767 113.504 138.506 101.85 132.095C90.5071 125.854 125.414 99.6081 136.538 91.6835C142.806 71.8405 113.669 93.8654 101.963 91.4288C85.2641 87.9526 106.649 67.8382 111.318 63.0932C123.067 51.1536 161.222 19.1395 178.105 30.0945C192.231 39.2613 159.032 66.1045 152.059 71.0362C151.576 71.3618 150.918 71.2386 150.588 70.761C150.259 70.2833 150.383 69.632 150.866 69.3065ZM180.006 98.9394C183.328 95.7746 185.862 92.3971 183.078 92.1441C181.429 92.8733 180.244 96.0124 180.006 98.9394ZM183.245 90.062C183.259 90.0627 183.271 90.0609 183.284 90.0616L183.149 90.0524C183.182 90.0553 183.213 90.0592 183.245 90.062ZM151.35 103.632C149.869 105.432 148.984 107.152 149.084 108.712C150.062 107.577 150.892 105.669 151.35 103.632ZM135.186 95.3214C132.451 97.1658 129.726 99.0703 127.072 101.093C123.802 103.584 95.9236 126.449 102.875 130.264C111.284 134.878 128.806 108.278 132.233 101.597C133.446 99.2324 134.421 97.152 135.186 95.3214Z" fill="white"/>
<path fill-rule="evenodd" clip-rule="evenodd" d="M69.549 98.4855C68.8715 102.783 68.3408 107.049 67.3302 111.245C71.4659 105.276 78.7015 95.3154 76.9687 106.691C76.8707 107.336 76.677 108.358 76.7089 109.151C79.6042 107.017 88.2275 93.7451 85.5251 107.683C85.351 108.58 84.5389 112.063 84.6267 113.681C85.8933 111.961 91.1494 104.74 94.8759 100.898C95.6083 99.047 96.7074 97.4138 98.51 96.4893C108.801 91.2116 110.325 108.183 99.2725 112.81C93.9916 115.021 93.2546 112.1 93.8684 108.442C93.4631 108.234 93.2238 107.79 93.3095 107.329C93.4149 106.783 93.5194 106.203 93.633 105.605C90.5295 109.684 87.3415 114.478 86.0565 115.489C81.0606 119.417 82.7243 109.252 83.6118 104.924C72.639 117.611 75.0458 109.261 75.2172 104.424C71.8128 108.064 65.6639 120.075 64.061 116.132C63.9347 115.821 67.3454 98.6497 67.3911 98.3603C67.4258 97.7832 67.9369 97.3434 68.5327 97.3781C69.1285 97.4127 69.5833 97.9084 69.549 98.4855ZM98.6785 98.9203C98.7454 99.1553 98.7596 99.4875 98.7118 99.929C98.4576 102.293 91.3409 115.384 99.5468 110.298C106.647 105.897 106.523 94.75 99.5274 98.338C99.2197 98.4958 98.938 98.6925 98.6785 98.9203Z" fill="white"/>
<path fill-rule="evenodd" clip-rule="evenodd" d="M58.5702 79.3021C57.6983 87.4921 47.5797 113.831 50.3755 117.818C52.5381 120.902 64.8373 106.637 65.3757 106.012C65.7492 105.562 66.4295 105.492 66.895 105.854C67.3605 106.217 67.4345 106.876 67.0607 107.326C64.2659 110.569 56.5729 120.264 51.1193 120.243C41.737 120.208 55.4316 87.3966 56.4533 79.721C56.3326 79.1549 56.7085 78.6019 57.2933 78.4862C57.8777 78.3705 58.4494 78.7357 58.5702 79.3021Z" fill="white"/>
<path fill-rule="evenodd" clip-rule="evenodd" d="M45.6558 101.16C51.0588 99.0564 55.752 96.3911 60.7855 93.5999C61.2659 93.2578 61.9424 93.3579 62.2967 93.8239C62.6511 94.2895 62.5487 94.9447 62.0684 95.2868C56.2799 98.5348 51.9257 101.12 45.5312 103.25C44.9354 103.216 44.4802 102.72 44.5145 102.143C44.5489 101.566 45.06 101.126 45.6558 101.16Z" fill="white"/>
<path fill-rule="evenodd" clip-rule="evenodd" d="M34.0551 126.348C36.2623 115.196 56.5507 58.7321 53.9878 53.1933C53.9804 53.177 53.9715 53.1604 53.9616 53.1437C45.9082 53.787 16.5388 104.382 12.7213 114.098C12.3783 114.971 12.0229 115.899 11.6589 116.868L11.9538 116.718C20.244 112.458 29.7612 106.798 38.0251 103.385C38.6184 103.323 39.1523 103.738 39.2178 104.313C39.2832 104.888 38.8556 105.404 38.2623 105.466C29.7583 109.688 21.4157 114.227 12.9719 118.567C12.1804 118.973 11.3896 119.347 10.6164 119.695C9.03091 124.065 7.35722 128.988 5.8754 133.587C5.41698 137.135 3.8771 140.977 3.00132 142.65L1.3719 142.684C1.28021 142.445 1.29614 141.97 1.40057 141.304L1.3418 141.305L1.23986 141.415C1.32057 141.188 1.42923 140.867 1.55596 140.476C1.87031 138.982 2.46857 136.882 3.23638 134.455C3.77303 132.115 4.08809 129.942 3.66188 129.217C-4.28918 123.728 2.20483 121.245 8.96859 118.15C10.8642 113.1 12.5181 108.943 13.0827 107.73C16.2729 100.874 50.0255 42.9594 55.7974 52.042C59.5798 57.9945 38.5544 114.947 36.2166 126.346C36.218 126.924 35.7359 127.393 35.139 127.394C34.5422 127.394 34.0569 126.926 34.0551 126.348ZM7.96821 120.838C3.12841 122.874 0.0557461 124.125 4.15146 126.989C4.63785 127.33 5.01308 127.771 5.29521 128.288C6.15188 125.823 7.07013 123.273 7.96821 120.838Z" fill="white"/>
<path fill-rule="evenodd" clip-rule="evenodd" d="M191.408 92.8041C192.926 85.9897 194.775 89.5912 196.979 91.1865C199.753 86.2993 204.471 86.0103 203.651 88.7452C202.155 93.7378 200.036 94.4313 198.145 93.8181C196.089 99.3252 196.029 106.505 205.522 98.0518C205.125 93.7222 207.513 88.022 212.43 87.0055C218.373 85.7775 213.414 93.4087 207.298 98.8358C207.715 100.925 209.69 101.768 214.344 98.9922C216.176 97.9 217.299 96.8308 217.82 94.6962C217.894 94.1362 218.377 93.7445 218.899 93.8213C219.421 93.8984 219.785 94.4153 219.711 94.9754C219.246 96.8881 218.771 97.9952 217.278 99.3068C210.855 104.952 207.144 103.509 205.927 100C200.698 104.229 195.161 106.33 195.064 99.7731C195.021 96.9316 195.486 94.6167 196.218 92.7772C195.127 91.9879 194.282 91.0984 193.944 91.0301C193.576 91.4175 193.357 92.8448 193.289 93.1536C193.197 93.7113 192.702 94.0845 192.182 93.9879C191.663 93.8913 191.317 93.3617 191.408 92.8041ZM199.056 91.7462C199.817 91.519 200.613 90.7265 201.447 88.979C200.711 89.1333 199.834 90.2383 199.056 91.7462ZM207.372 96.3485C209.178 94.6347 213.265 90.5655 213.082 88.9847C210.861 88.4402 208.065 92.7839 207.372 96.3485Z" fill="white"/>
<path d="M218.757 83.7366C218.784 84.4229 218.249 85.0018 217.562 85.0287C216.875 85.0556 216.296 84.5206 216.269 83.8342C216.235 82.9918 216.174 80.846 216.113 78.5214C216.034 75.5247 215.955 72.2271 215.934 71.1172C215.56 50.7339 208.432 35.2796 197.608 24.257C190.093 16.6048 180.788 11.0737 170.717 7.5027C160.615 3.92003 149.749 2.30841 139.149 2.50265C120.251 2.84939 102.218 8.92572 90.8878 19.7933L90.8326 27.7586C90.8301 28.445 90.2705 28.9994 89.5837 28.997C88.897 28.9945 88.3423 28.4351 88.3447 27.7487L88.4074 18.7329L88.7741 18.3728C100.539 6.83186 119.395 0.377666 139.11 0.0160728C150.003 -0.183476 161.167 1.47202 171.546 5.1527C181.957 8.84435 191.589 14.5743 199.383 22.5113C210.629 33.9634 218.035 49.9856 218.422 71.0783C218.442 72.1536 218.521 75.4397 218.601 78.4627C218.66 80.7246 218.721 82.8404 218.757 83.7366Z" fill="white"/>
<path d="M66.3736 30.7139H114.933L118.425 51.0349H60.915L65.3704 30.7139H66.3736ZM112.831 33.2103H67.3772L64.0167 48.5384H115.465L112.831 33.2103Z" fill="white"/>
<path d="M96.4979 53.1922C96.4979 52.503 97.0572 51.944 97.7468 51.944C98.4363 51.944 98.9957 52.503 98.9957 53.1922C98.9957 54.72 97.8038 56.0106 95.877 56.8608C94.262 57.5734 92.057 58.015 89.6477 58.015C87.2384 58.015 85.0334 57.5734 83.4185 56.8608C81.4917 56.0106 80.2998 54.72 80.2998 53.1922C80.2998 52.503 80.8591 51.944 81.5487 51.944C82.2383 51.944 82.7976 52.503 82.7976 53.1922C82.7976 53.6384 83.4192 54.1358 84.4231 54.5788C85.7382 55.159 87.5843 55.5185 89.6477 55.5185C91.7112 55.5185 93.5572 55.159 94.8723 54.5788C95.8763 54.1358 96.4979 53.6384 96.4979 53.1922Z" fill="white"/>
<path d="M215.484 107.654C215.484 106.965 216.043 106.406 216.733 106.406C217.422 106.406 217.982 106.965 217.982 107.654V127.383H141.928C141.238 127.383 140.679 126.824 140.679 126.135C140.679 125.446 141.238 124.887 141.928 124.887H215.484V107.654ZM94.0647 124.887C94.7542 124.887 95.3135 125.446 95.3135 126.135C95.3135 126.824 94.7542 127.383 94.0647 127.383H48.0213C47.3318 127.383 46.7725 126.824 46.7725 126.135C46.7725 125.446 47.3318 124.887 48.0213 124.887H94.0647Z" fill="white"/>
<path d="M136.849 151.585V134.416H140.278C141.483 134.416 142.374 134.48 142.949 134.608C143.521 134.74 144.016 134.96 144.427 135.272C144.952 135.677 145.359 136.201 145.646 136.837C145.935 137.474 146.08 138.174 146.08 138.931C146.08 139.839 145.873 140.595 145.455 141.204C145.04 141.816 144.434 142.24 143.64 142.484C144.611 142.64 145.382 143.097 145.946 143.849C146.51 144.605 146.794 145.558 146.794 146.707C146.794 147.395 146.675 148.051 146.433 148.675C146.195 149.3 145.862 149.836 145.435 150.285C144.971 150.761 144.396 151.097 143.717 151.293C143.034 151.489 141.886 151.585 140.278 151.585H136.849ZM138.759 143.541V149.808H140.278C141.319 149.808 142.071 149.764 142.531 149.68C142.991 149.592 143.36 149.444 143.64 149.232C143.974 148.984 144.239 148.636 144.43 148.187C144.626 147.743 144.722 147.251 144.722 146.71C144.722 146.082 144.607 145.538 144.373 145.078C144.143 144.617 143.805 144.257 143.364 143.997C143.103 143.833 142.8 143.717 142.454 143.645C142.113 143.577 141.576 143.541 140.851 143.541H140.278H138.759ZM138.759 136.193V141.932H140.278C141.672 141.932 142.654 141.72 143.222 141.3C143.794 140.879 144.078 140.167 144.078 139.167C144.078 138.066 143.812 137.297 143.283 136.853C142.757 136.413 141.752 136.193 140.278 136.193H138.759ZM149.718 134.416H151.698V145.102C151.698 146.839 152.051 148.111 152.76 148.924C153.47 149.736 154.579 150.145 156.095 150.145C157.61 150.145 158.719 149.736 159.429 148.924C160.139 148.111 160.492 146.839 160.492 145.102V134.416H162.472V145.102C162.472 147.423 161.942 149.16 160.883 150.313C159.82 151.465 158.224 152.042 156.091 152.042C153.961 152.042 152.369 151.465 151.306 150.313C150.247 149.16 149.718 147.423 149.718 145.102V134.416ZM166.366 151.585V134.416H170.234C171.335 134.416 172.145 134.48 172.655 134.608C173.169 134.74 173.622 134.96 174.013 135.272C174.501 135.669 174.877 136.205 175.145 136.873C175.418 137.541 175.552 138.282 175.552 139.094C175.552 140.499 175.176 141.572 174.424 142.3C173.668 143.033 172.567 143.397 171.112 143.397H170.763L177.048 151.585H174.562L168.553 143.397H168.277V151.585H166.366ZM168.277 136.145V141.884H169.77C171.301 141.884 172.325 141.68 172.843 141.268C173.361 140.859 173.618 140.143 173.618 139.118C173.618 138.018 173.353 137.25 172.82 136.805C172.287 136.365 171.27 136.145 169.77 136.145H168.277ZM178.687 151.585V134.416H187.366V136.289H180.644V141.212H187.366V143.109H180.644V149.688H187.366V151.585H178.687ZM195.88 138.258L193.264 144.573H198.501L195.88 138.258ZM195.88 133.744L203.366 151.585H201.244L199.107 146.326H192.68L190.543 151.585H188.425L195.88 133.744ZM204.598 134.416H206.578V145.102C206.578 146.839 206.931 148.111 207.64 148.924C208.35 149.736 209.459 150.145 210.975 150.145C212.49 150.145 213.599 149.736 214.309 148.924C215.019 148.111 215.372 146.839 215.372 145.102V134.416H217.352V145.102C217.352 147.423 216.822 149.16 215.763 150.313C214.7 151.465 213.104 152.042 210.971 152.042C208.841 152.042 207.249 151.465 206.186 150.313C205.127 149.16 204.598 147.423 204.598 145.102V134.416Z" fill="white"/>
</svg>
