<svg width="296" height="72" viewBox="0 0 296 72" fill="none" xmlns="http://www.w3.org/2000/svg">
<g filter="url(#filter0_d_127_1131)">
<path d="M5.65908 48.953C4.89974 48.953 4.52008 48.5957 4.52008 47.881C4.52008 47.613 4.54241 47.4343 4.58708 47.345C6.23974 43.727 10.7287 38.3223 18.0541 31.131C17.8307 31.1757 17.6297 31.2203 17.4511 31.265C17.2724 31.265 17.1384 31.265 17.0491 31.265C16.2897 31.265 15.9101 30.8407 15.9101 29.992C15.9101 29.5007 16.2897 29.188 17.0491 29.054C17.4957 28.9647 17.9647 28.8977 18.4561 28.853C18.9921 28.7637 19.6621 28.6297 20.4661 28.451C25.8707 22.823 31.0744 17.999 36.0771 13.979C41.1244 9.91433 45.9484 6.58666 50.5491 3.996C50.9511 3.77266 51.3084 3.594 51.6211 3.46C51.9337 3.28133 52.2017 3.192 52.4251 3.192C52.9611 3.192 53.2291 3.54933 53.2291 4.264C53.2291 5.604 51.8891 10.2047 49.2091 18.066L46.2611 26.709C47.4224 26.709 48.0031 27.0663 48.0031 27.781C48.0031 28.585 47.2437 28.987 45.7251 28.987C44.8764 31.3097 44.0724 33.878 43.3131 36.692C42.5984 39.4613 41.9954 42.32 41.5041 45.268C41.3254 46.206 40.9234 46.675 40.2981 46.675C39.5387 46.675 39.1591 46.273 39.1591 45.469C39.1591 45.335 39.2037 45.0447 39.2931 44.598C39.3824 44.1513 39.5164 43.5707 39.6951 42.856C40.2311 40.2653 40.7001 38.1213 41.1021 36.424C41.5487 34.7267 41.9284 33.2973 42.2411 32.136C42.5984 30.93 42.9111 29.8357 43.1791 28.853C34.9604 29.0317 27.7244 29.6347 21.4711 30.662C19.6844 32.4933 18.1881 34.0567 16.9821 35.352C15.7761 36.6027 14.8827 37.5407 14.3021 38.166C11.6221 41.114 9.47808 43.794 7.87008 46.206C7.73608 46.4293 7.57974 46.7197 7.40108 47.077C7.17774 47.4343 6.90974 47.8587 6.59708 48.35C6.41841 48.752 6.10574 48.953 5.65908 48.953ZM24.2181 27.915C26.8087 27.5577 29.7344 27.2897 32.9951 27.111C36.2557 26.8877 39.9184 26.7313 43.9831 26.642C44.6531 24.5873 45.3231 22.5997 45.9931 20.679C46.6631 18.7137 47.3107 16.8377 47.9361 15.051C48.6954 13.0857 49.7004 10.1377 50.9511 6.207C45.7697 9.19966 40.9457 12.505 36.4791 16.123C32.0571 19.741 27.9701 23.6717 24.2181 27.915ZM54.2325 49.623C53.3838 49.623 52.9595 48.953 52.9595 47.613C52.9595 45.6477 54.0538 42.2083 56.2425 37.295C58.4758 32.3817 61.7812 25.9497 66.1585 17.999C64.4612 17.999 62.8532 18.2223 61.3345 18.669C59.8605 19.071 59.0788 19.5847 58.9895 20.21C58.9448 20.3887 58.8332 20.5673 58.6545 20.746C58.5205 20.88 58.2972 20.947 57.9845 20.947C57.2698 20.947 56.9125 20.5897 56.9125 19.875C56.9125 18.7137 57.8282 17.7533 59.6595 16.994C61.4908 16.2347 64.0592 15.855 67.3645 15.855L71.9875 8.217C72.3002 7.72567 72.6352 7.18967 72.9925 6.609C73.3498 5.98367 73.7518 5.31367 74.1985 4.599C74.6452 3.97366 75.1588 3.661 75.7395 3.661C76.0968 3.661 76.3648 3.77266 76.5435 3.996C76.7222 4.17466 76.8115 4.37566 76.8115 4.599C76.8115 5.269 75.8288 7.05567 73.8635 9.959C71.4068 13.577 70.0892 15.5423 69.9105 15.855C70.5805 15.855 71.5855 15.922 72.9255 16.056C74.2655 16.1453 75.8512 16.3017 77.6825 16.525C78.3525 16.5697 78.6875 16.9047 78.6875 17.53C78.6875 18.2447 78.2855 18.602 77.4815 18.602C77.1688 18.602 76.5435 18.5573 75.6055 18.468C74.6675 18.334 73.6625 18.2223 72.5905 18.133C71.5185 18.0437 70.6028 18.0213 69.8435 18.066L68.8385 18.133C59.7712 34.079 55.2598 43.995 55.3045 47.881L55.3715 48.417V48.551C55.3715 49.2657 54.9918 49.623 54.2325 49.623ZM67.1981 47.278C66.4387 47.278 66.0591 46.9207 66.0591 46.206C66.0591 46.1613 66.3271 45.603 66.8631 44.531C67.3991 43.459 68.1584 41.8733 69.1411 39.774L72.5581 32.605C73.9427 29.7017 74.9254 27.4013 75.5061 25.704C76.1314 24.0067 76.4441 22.9123 76.4441 22.421C76.4441 21.7063 76.8014 21.349 77.5161 21.349C78.2307 21.349 78.5881 21.7063 78.5881 22.421C78.5881 23.0017 78.3871 23.9173 77.9851 25.168C77.6277 26.374 77.0247 27.9373 76.1761 29.858L72.7591 37.63C82.0944 25.838 89.1294 19.942 93.8641 19.942C94.7574 19.942 95.4497 20.3217 95.9411 21.081C96.4324 21.7957 96.6781 22.5997 96.6781 23.493C96.6781 25.637 95.1371 29.3667 92.0551 34.682C94.4224 32.27 96.8121 29.858 99.2241 27.446C101.681 24.9893 104.137 22.5773 106.594 20.21C107.219 19.6293 107.733 19.339 108.135 19.339C108.671 19.339 109.118 19.607 109.475 20.143C109.832 20.6343 110.011 21.1703 110.011 21.751C110.011 22.1977 109.81 22.756 109.408 23.426C108.827 24.4087 108.291 25.5923 107.8 26.977C107.309 28.317 106.75 29.8357 106.125 31.533C105.41 33.4537 104.897 35.1287 104.584 36.558C104.271 37.9873 104.115 39.1487 104.115 40.042C104.115 41.1587 104.383 41.985 104.919 42.521C105.455 43.0123 105.991 43.258 106.527 43.258C107.465 43.258 108.492 43.0123 109.609 42.521C110.726 42.0297 111.641 41.5383 112.356 41.047C113.785 40.109 115.282 38.9477 116.845 37.563C118.408 36.1337 119.905 34.7043 121.334 33.275C121.513 33.0963 121.781 33.007 122.138 33.007C122.808 33.007 123.143 33.275 123.143 33.811C123.143 34.3023 122.83 34.8607 122.205 35.486C120.418 37.2727 118.81 38.8137 117.381 40.109C115.952 41.3597 114.589 42.387 113.294 43.191C112.445 43.6823 111.418 44.196 110.212 44.732C109.006 45.268 107.711 45.536 106.326 45.536C105.031 45.536 103.936 45.134 103.043 44.33C102.194 43.526 101.77 41.8063 101.77 39.171C101.77 38.1437 101.949 36.9377 102.306 35.553C102.663 34.1237 103.199 32.538 103.914 30.796L107.465 22.354L97.8841 32.002C96.7674 33.1187 95.8517 34.0567 95.1371 34.816C94.4224 35.5753 93.8417 36.2007 93.3951 36.692C92.5464 37.5853 91.7871 38.4563 91.1171 39.305C90.4917 40.1537 89.9557 40.8907 89.5091 41.516C89.1964 42.0073 88.8391 42.253 88.4371 42.253C87.6777 42.253 87.2981 41.9403 87.2981 41.315C87.2981 39.9303 88.5487 36.7367 91.0501 31.734C93.5514 26.7313 94.8021 23.7387 94.8021 22.756C94.8021 22.3093 94.3107 22.086 93.3281 22.086C89.3527 22.086 82.2731 28.585 72.0891 41.583C71.2404 42.789 69.8334 44.598 67.8681 47.01C67.7341 47.1887 67.5107 47.278 67.1981 47.278ZM124.564 44.665C120.946 44.665 119.137 42.6327 119.137 38.568C119.137 36.692 119.584 34.7267 120.477 32.672C121.371 30.6173 122.554 28.719 124.028 26.977C125.502 25.1903 127.133 23.7387 128.919 22.622C130.751 21.5053 132.604 20.947 134.48 20.947C136.133 20.947 137.339 21.5723 138.098 22.823C138.858 24.0737 139.237 25.4583 139.237 26.977C139.237 28.987 138.835 31.0417 138.031 33.141C137.227 35.1957 136.133 37.094 134.748 38.836C133.364 40.578 131.8 41.985 130.058 43.057C128.316 44.129 126.485 44.665 124.564 44.665ZM124.497 42.521C124.765 42.521 124.922 42.4987 124.966 42.454C126.708 42.2307 128.316 41.6053 129.79 40.578C131.264 39.5507 132.537 38.2777 133.609 36.759C134.726 35.1957 135.575 33.5207 136.155 31.734C136.736 29.9473 137.026 28.183 137.026 26.441C137.026 25.4137 136.736 24.6097 136.155 24.029C135.575 23.4483 134.838 23.158 133.944 23.158C132.649 23.158 131.264 23.694 129.79 24.766C128.361 25.838 126.999 27.2003 125.703 28.853C124.453 30.5057 123.425 32.2477 122.621 34.079C121.817 35.8657 121.415 37.4737 121.415 38.903C121.415 41.315 122.443 42.521 124.497 42.521ZM142.789 47.211C140.287 47.211 139.037 46.3847 139.037 44.732C139.037 43.7047 139.394 42.6773 140.109 41.65C140.868 40.6227 141.761 39.6847 142.789 38.836C143.816 37.9873 144.776 37.3397 145.67 36.893C145.938 36.759 146.295 36.625 146.742 36.491C147.233 36.357 147.635 36.29 147.948 36.29C148.305 36.29 148.484 36.424 148.484 36.692C148.484 36.9153 148.238 37.161 147.747 37.429C145.692 38.4117 144.084 39.5953 142.923 40.98C141.806 42.32 141.248 43.4143 141.248 44.263C141.248 45.067 141.94 45.469 143.325 45.469C144.486 45.469 145.737 45.1787 147.077 44.598C148.461 44.0173 149.757 43.258 150.963 42.32C152.213 41.382 153.241 40.377 154.045 39.305C154.849 38.233 155.251 37.2057 155.251 36.223C155.251 35.553 155.027 34.95 154.581 34.414C154.179 33.878 153.509 33.476 152.571 33.208L148.149 31.868C147.032 31.5107 146.228 31.0417 145.737 30.461C145.245 29.8803 145 29.2327 145 28.518C145 27.178 145.491 25.972 146.474 24.9C147.501 23.828 148.774 22.9793 150.293 22.354C151.811 21.7287 153.285 21.416 154.715 21.416C156.144 21.416 157.395 21.7733 158.467 22.488C159.539 23.158 160.075 24.0737 160.075 25.235C160.075 25.905 159.874 26.5303 159.472 27.111C159.114 27.6917 158.69 27.982 158.199 27.982C157.439 27.982 157.06 27.6693 157.06 27.044C157.06 26.8207 157.171 26.5527 157.395 26.24C157.663 25.8827 157.797 25.5477 157.797 25.235C157.797 23.895 156.769 23.225 154.715 23.225C153.598 23.225 152.481 23.4707 151.365 23.962C150.293 24.4087 149.399 25.0117 148.685 25.771C147.97 26.5303 147.613 27.3567 147.613 28.25C147.613 29.1433 148.506 29.858 150.293 30.394L154.581 31.734C155.876 32.136 156.769 32.6943 157.261 33.409C157.752 34.079 157.998 34.8383 157.998 35.687C157.998 37.697 156.769 39.774 154.313 41.918C150.337 45.4467 146.496 47.211 142.789 47.211ZM158.639 63.492C156.54 63.492 155.49 61.9957 155.49 59.003C155.49 55.0723 157.21 48.819 160.649 40.243C161.23 38.8137 161.922 37.3173 162.726 35.754C163.53 34.1907 164.468 32.538 165.54 30.796C166.657 28.92 167.706 27.2897 168.689 25.905C169.716 24.5203 170.61 23.4037 171.369 22.555C171.637 22.287 171.86 22.1083 172.039 22.019C172.262 21.9297 172.441 21.885 172.575 21.885C173.736 21.885 175.054 22.22 176.528 22.89C178.002 23.56 179.32 24.4087 180.481 25.436C181.553 26.3293 182.424 27.4013 183.094 28.652C183.764 29.9027 184.099 31.198 184.099 32.538C184.099 33.5207 183.898 34.5257 183.496 35.553C183.139 36.5357 182.647 37.5183 182.022 38.501C183.183 38.2777 184.59 37.764 186.243 36.96C187.94 36.156 189.66 34.9277 191.402 33.275C191.581 33.0963 191.826 33.007 192.139 33.007C192.809 33.007 193.144 33.275 193.144 33.811C193.144 34.0343 193.032 34.3247 192.809 34.682C192.63 34.9947 192.295 35.3967 191.804 35.888C188.499 38.9253 184.523 40.6673 179.878 41.114C179.208 41.8287 178.471 42.521 177.667 43.191C176.908 43.8163 176.104 44.397 175.255 44.933C172.664 46.4963 170.453 47.278 168.622 47.278C167.863 47.278 167.237 47.0323 166.746 46.541C166.255 46.0497 166.009 45.4913 166.009 44.866C166.009 42.8113 167.796 41.248 171.369 40.176C172.664 39.8187 173.96 39.506 175.255 39.238C176.55 38.97 177.823 38.6797 179.074 38.367C179.967 36.9823 180.615 35.7763 181.017 34.749C181.464 33.7217 181.687 32.8507 181.687 32.136C181.687 29.7687 179.923 27.513 176.394 25.369C175.009 24.5203 173.915 24.1183 173.111 24.163C169.448 28.183 165.987 33.811 162.726 41.047C159.331 48.5063 157.634 54.38 157.634 58.668C157.634 59.6953 157.723 60.3877 157.902 60.745C158.081 61.1023 158.393 61.281 158.84 61.281C158.974 61.281 159.086 61.2587 159.175 61.214C159.264 61.214 159.354 61.214 159.443 61.214C160.024 61.214 160.314 61.5713 160.314 62.286C160.314 63.09 159.756 63.492 158.639 63.492ZM169.091 45.134C170.744 45.134 173.133 43.8387 176.26 41.248C175.545 41.3373 174.853 41.449 174.183 41.583C173.558 41.717 172.642 41.9627 171.436 42.32C169.426 42.9007 168.421 43.6377 168.421 44.531C168.421 44.933 168.644 45.134 169.091 45.134ZM188.67 46.206C187.955 46.206 187.598 45.8487 187.598 45.134C187.598 44.196 187.933 42.722 188.603 40.712C189.273 38.6573 190.144 36.3123 191.216 33.677C192.333 30.997 193.516 28.25 194.767 25.436C195.482 23.8727 196.219 22.354 196.978 20.88C197.737 19.3613 198.452 18.0437 199.122 16.927C205.733 5.76033 209.842 0.176998 211.45 0.176998C212.075 0.176998 212.388 0.489665 212.388 1.115C212.388 1.517 212.075 2.27633 211.45 3.393C210.869 4.465 210.088 5.738 209.105 7.212C208.167 8.64133 207.14 10.093 206.023 11.567C204.951 13.041 203.924 14.4033 202.941 15.654C202.003 16.86 201.244 17.7757 200.663 18.401C200.172 18.9817 199.613 19.8303 198.988 20.947C198.407 22.0637 197.827 23.225 197.246 24.431C196.665 25.5923 196.196 26.6197 195.839 27.513L193.293 33.811C193.963 32.9177 194.834 31.9127 195.906 30.796C198.452 27.982 201.087 25.8603 203.812 24.431C206.581 22.957 208.904 22.22 210.78 22.22C211.807 22.22 212.634 22.5327 213.259 23.158C213.884 23.7833 214.197 24.5427 214.197 25.436C214.197 27.178 213.058 30.1037 210.78 34.213C208.502 38.2777 207.363 40.779 207.363 41.717C207.363 42.2083 207.631 42.454 208.167 42.454C209.418 42.454 210.78 42.0073 212.254 41.114C213.728 40.176 215.247 38.9923 216.81 37.563C218.373 36.1337 219.892 34.7043 221.366 33.275C221.545 33.0963 221.813 33.007 222.17 33.007C222.84 33.007 223.175 33.275 223.175 33.811C223.175 34.3023 222.862 34.8607 222.237 35.486C219.244 38.4787 216.676 40.712 214.532 42.186C212.388 43.66 210.132 44.397 207.765 44.397C205.978 44.397 205.085 43.5707 205.085 41.918C205.085 41.2927 205.197 40.6897 205.42 40.109C205.643 39.5283 206.001 38.7467 206.492 37.764L209.574 31.667C210.333 30.1483 210.892 28.8753 211.249 27.848C211.606 26.8207 211.785 26.039 211.785 25.503C211.785 24.7437 211.316 24.364 210.378 24.364C208.725 24.364 206.782 25.034 204.549 26.374C202.36 27.6693 200.015 29.6347 197.514 32.27C196.085 33.7887 194.789 35.3967 193.628 37.094C192.511 38.7913 191.618 40.6227 190.948 42.588L190.144 44.933C189.831 45.7817 189.34 46.206 188.67 46.206ZM225.879 46.206C224.003 46.206 222.529 45.5583 221.457 44.263C220.385 42.9677 219.849 41.382 219.849 39.506C219.849 36.29 220.921 32.9847 223.065 29.59C223.646 28.652 224.316 27.7363 225.075 26.843C225.835 25.905 226.661 25.0117 227.554 24.163C228.894 22.8677 230.301 21.7957 231.775 20.947C233.249 20.0983 234.679 19.674 236.063 19.674C238.341 19.674 239.48 20.746 239.48 22.89C239.48 25.57 237.917 28.0043 234.79 30.193C231.887 32.1583 229.028 33.141 226.214 33.141C225.723 33.141 225.276 33.1187 224.874 33.074C224.517 32.9847 224.182 32.8953 223.869 32.806C223.423 33.6547 223.021 34.749 222.663 36.089C222.306 37.429 222.127 38.5903 222.127 39.573C222.127 42.521 223.423 43.995 226.013 43.995C228.113 43.995 230.1 43.6377 231.976 42.923C233.852 42.1637 236.086 40.7567 238.676 38.702C240.284 37.4513 241.49 36.4463 242.294 35.687C243.098 34.9277 243.969 34.1237 244.907 33.275C245.175 33.0963 245.421 33.007 245.644 33.007C245.868 33.007 246.091 33.074 246.314 33.208C246.538 33.342 246.649 33.543 246.649 33.811C246.649 34.3023 246.203 34.9947 245.309 35.888C244.55 36.6027 243.746 37.362 242.897 38.166C242.049 38.9253 240.709 39.9973 238.877 41.382C236.912 42.9007 234.768 44.0843 232.445 44.933C230.123 45.7817 227.934 46.206 225.879 46.206ZM225.812 30.997C227.242 30.997 228.604 30.7737 229.899 30.327C231.195 29.8803 232.423 29.2327 233.584 28.384C236.175 26.4633 237.47 24.6543 237.47 22.957C237.47 22.1977 237.001 21.818 236.063 21.818C234.277 21.818 232.2 22.9123 229.832 25.101C228.671 26.173 227.711 27.1557 226.951 28.049C226.237 28.8977 225.567 29.8357 224.941 30.863C225.209 30.9523 225.5 30.997 225.812 30.997ZM240.389 46.675C239.674 46.675 239.317 46.3847 239.317 45.804C239.317 45.536 239.384 45.268 239.518 45C239.697 44.732 239.831 44.5087 239.92 44.33L246.017 32.002C248.608 26.7313 249.903 23.8057 249.903 23.225C249.903 22.5997 250.216 22.287 250.841 22.287C251.69 22.287 252.114 22.7113 252.114 23.56C252.114 24.0067 251.913 24.7213 251.511 25.704C251.109 26.6867 250.595 27.8257 249.97 29.121C248.898 31.4437 248.005 33.2303 247.29 34.481C248.63 32.9177 249.992 31.4437 251.377 30.059C252.762 28.6743 254.169 27.3567 255.598 26.106C259.841 22.3987 263.102 20.545 265.38 20.545C266.943 20.545 267.725 21.282 267.725 22.756C267.725 24.1853 267.256 24.9 266.318 24.9C265.871 24.9 265.536 24.5203 265.313 23.761C265.179 23.225 264.866 22.957 264.375 22.957C263.616 22.957 262.142 23.7833 259.953 25.436C257.541 27.2227 255.107 29.3443 252.65 31.801C250.238 34.2577 247.67 37.3843 244.945 41.181L241.595 45.871C241.416 46.0943 241.238 46.273 241.059 46.407C240.925 46.5857 240.702 46.675 240.389 46.675ZM270.96 46.206C269.084 46.206 267.61 45.5583 266.538 44.263C265.466 42.9677 264.93 41.382 264.93 39.506C264.93 36.29 266.002 32.9847 268.146 29.59C268.727 28.652 269.397 27.7363 270.156 26.843C270.916 25.905 271.742 25.0117 272.635 24.163C273.975 22.8677 275.382 21.7957 276.856 20.947C278.33 20.0983 279.76 19.674 281.144 19.674C283.422 19.674 284.561 20.746 284.561 22.89C284.561 25.57 282.998 28.0043 279.871 30.193C276.968 32.1583 274.109 33.141 271.295 33.141C270.804 33.141 270.357 33.1187 269.955 33.074C269.598 32.9847 269.263 32.8953 268.95 32.806C268.504 33.6547 268.102 34.749 267.744 36.089C267.387 37.429 267.208 38.5903 267.208 39.573C267.208 42.521 268.504 43.995 271.094 43.995C273.194 43.995 275.181 43.6377 277.057 42.923C278.933 42.1637 281.167 40.7567 283.757 38.702C285.365 37.4513 286.571 36.4463 287.375 35.687C288.179 34.9277 289.05 34.1237 289.988 33.275C290.256 33.0963 290.502 33.007 290.725 33.007C290.949 33.007 291.172 33.074 291.395 33.208C291.619 33.342 291.73 33.543 291.73 33.811C291.73 34.3023 291.284 34.9947 290.39 35.888C289.631 36.6027 288.827 37.362 287.978 38.166C287.13 38.9253 285.79 39.9973 283.958 41.382C281.993 42.9007 279.849 44.0843 277.526 44.933C275.204 45.7817 273.015 46.206 270.96 46.206ZM270.893 30.997C272.323 30.997 273.685 30.7737 274.98 30.327C276.276 29.8803 277.504 29.2327 278.665 28.384C281.256 26.4633 282.551 24.6543 282.551 22.957C282.551 22.1977 282.082 21.818 281.144 21.818C279.358 21.818 277.281 22.9123 274.913 25.101C273.752 26.173 272.792 27.1557 272.032 28.049C271.318 28.8977 270.648 29.8357 270.022 30.863C270.29 30.9523 270.581 30.997 270.893 30.997Z" fill="white"/>
</g>
<defs>
<filter id="filter0_d_127_1131" x="0.520508" y="0.176998" width="295.21" height="71.315" filterUnits="userSpaceOnUse" color-interpolation-filters="sRGB">
<feFlood flood-opacity="0" result="BackgroundImageFix"/>
<feColorMatrix in="SourceAlpha" type="matrix" values="0 0 0 0 0 0 0 0 0 0 0 0 0 0 0 0 0 0 127 0" result="hardAlpha"/>
<feOffset dy="4"/>
<feGaussianBlur stdDeviation="2"/>
<feComposite in2="hardAlpha" operator="out"/>
<feColorMatrix type="matrix" values="0 0 0 0 0 0 0 0 0 0 0 0 0 0 0 0 0 0 0.4 0"/>
<feBlend mode="normal" in2="BackgroundImageFix" result="effect1_dropShadow_127_1131"/>
<feBlend mode="normal" in="SourceGraphic" in2="effect1_dropShadow_127_1131" result="shape"/>
</filter>
</defs>
</svg>
