<svg width="476" height="112" viewBox="0 0 476 112" fill="none" xmlns="http://www.w3.org/2000/svg">
<g filter="url(#filter0_d_173_20300)">
<path d="M6.18417 79.431C4.94884 79.431 4.33117 78.8497 4.33117 77.687C4.33117 77.251 4.3675 76.9603 4.44017 76.815C7.12884 70.929 14.4318 62.1363 26.3492 50.437C25.9858 50.5097 25.6588 50.5823 25.3682 50.655C25.0775 50.655 24.8595 50.655 24.7142 50.655C23.4788 50.655 22.8612 49.9647 22.8612 48.584C22.8612 47.7847 23.4788 47.276 24.7142 47.058C25.4408 46.9127 26.2038 46.8037 27.0032 46.731C27.8752 46.5857 28.9652 46.3677 30.2732 46.077C39.0658 36.921 47.5315 29.073 55.6702 22.533C63.8815 15.9203 71.7295 10.5067 79.2142 6.29199C79.8682 5.92866 80.4495 5.638 80.9582 5.42C81.4668 5.12933 81.9028 4.984 82.2662 4.984C83.1382 4.984 83.5742 5.56533 83.5742 6.728C83.5742 8.908 81.3942 16.3927 77.0342 29.182L72.2382 43.243C74.1275 43.243 75.0722 43.8243 75.0722 44.987C75.0722 46.295 73.8368 46.949 71.3662 46.949C69.9855 50.7277 68.6775 54.906 67.4422 59.484C66.2795 63.9893 65.2985 68.64 64.4992 73.436C64.2085 74.962 63.5545 75.725 62.5372 75.725C61.3018 75.725 60.6842 75.071 60.6842 73.763C60.6842 73.545 60.7568 73.0727 60.9022 72.346C61.0475 71.6193 61.2655 70.6747 61.5562 69.512C62.4282 65.2973 63.1912 61.8093 63.8452 59.048C64.5718 56.2867 65.1895 53.9613 65.6982 52.072C66.2795 50.11 66.7882 48.3297 67.2242 46.731C53.8535 47.0217 42.0815 48.0027 31.9082 49.674C29.0015 52.6533 26.5672 55.1967 24.6052 57.304C22.6432 59.3387 21.1898 60.8647 20.2452 61.882C15.8852 66.678 12.3972 71.038 9.78117 74.962C9.56317 75.3253 9.30884 75.7977 9.01817 76.379C8.65484 76.9603 8.21884 77.6507 7.71017 78.45C7.41951 79.104 6.91084 79.431 6.18417 79.431ZM36.3772 45.205C40.5918 44.6237 45.3515 44.1877 50.6562 43.897C55.9608 43.5337 61.9195 43.2793 68.5322 43.134C69.6222 39.7913 70.7122 36.5577 71.8022 33.433C72.8922 30.2357 73.9458 27.1837 74.9632 24.277C76.1985 21.0797 77.8335 16.2837 79.8682 9.88899C71.4388 14.7577 63.5908 20.135 56.3242 26.021C49.1302 31.907 42.4812 38.3017 36.3772 45.205ZM85.2066 80.521C83.826 80.521 83.1356 79.431 83.1356 77.251C83.1356 74.0537 84.916 68.4583 88.4766 60.465C92.11 52.4717 97.4873 42.0077 104.609 29.073C101.847 29.073 99.2313 29.4363 96.7606 30.163C94.3626 30.817 93.091 31.6527 92.9456 32.67C92.873 32.9607 92.6913 33.2513 92.4006 33.542C92.1826 33.76 91.8193 33.869 91.3106 33.869C90.148 33.869 89.5666 33.2877 89.5666 32.125C89.5666 30.2357 91.0563 28.6733 94.0356 27.438C97.015 26.2027 101.193 25.585 106.571 25.585L114.092 13.159C114.6 12.3597 115.145 11.4877 115.727 10.543C116.308 9.52567 116.962 8.43566 117.689 7.273C118.415 6.25566 119.251 5.747 120.196 5.747C120.777 5.747 121.213 5.92866 121.504 6.29199C121.794 6.58266 121.94 6.90966 121.94 7.273C121.94 8.363 120.341 11.2697 117.144 15.993C113.147 21.879 111.003 25.0763 110.713 25.585C111.803 25.585 113.438 25.694 115.618 25.912C117.798 26.0573 120.377 26.3117 123.357 26.675C124.447 26.7477 124.992 27.2927 124.992 28.31C124.992 29.4727 124.338 30.054 123.03 30.054C122.521 30.054 121.504 29.9813 119.978 29.836C118.452 29.618 116.817 29.4363 115.073 29.291C113.329 29.1457 111.839 29.1093 110.604 29.182L108.969 29.291C94.2173 55.233 86.878 71.365 86.9506 77.687L87.0596 78.559V78.777C87.0596 79.9397 86.442 80.521 85.2066 80.521ZM106.3 76.706C105.064 76.706 104.447 76.1247 104.447 74.962C104.447 74.8893 104.883 73.981 105.755 72.237C106.627 70.493 107.862 67.9133 109.461 64.498L115.02 52.835C117.272 48.1117 118.871 44.3693 119.816 41.608C120.833 38.8467 121.342 37.0663 121.342 36.267C121.342 35.1043 121.923 34.523 123.086 34.523C124.248 34.523 124.83 35.1043 124.83 36.267C124.83 37.2117 124.503 38.7013 123.849 40.736C123.267 42.698 122.286 45.2413 120.906 48.366L115.347 61.01C130.534 41.826 141.979 32.234 149.682 32.234C151.135 32.234 152.261 32.8517 153.061 34.087C153.86 35.2497 154.26 36.5577 154.26 38.011C154.26 41.499 151.753 47.5667 146.739 56.214C150.59 52.29 154.478 48.366 158.402 44.442C162.398 40.4453 166.395 36.5213 170.392 32.67C171.409 31.7253 172.245 31.253 172.899 31.253C173.771 31.253 174.497 31.689 175.079 32.561C175.66 33.3603 175.951 34.2323 175.951 35.177C175.951 35.9037 175.624 36.812 174.97 37.902C174.025 39.5007 173.153 41.4263 172.354 43.679C171.554 45.859 170.646 48.3297 169.629 51.091C168.466 54.2157 167.63 56.9407 167.122 59.266C166.613 61.5913 166.359 63.4807 166.359 64.934C166.359 66.7507 166.795 68.095 167.667 68.967C168.539 69.7663 169.411 70.166 170.283 70.166C171.809 70.166 173.48 69.7663 175.297 68.967C177.113 68.1677 178.603 67.3683 179.766 66.569C182.091 65.043 184.525 63.1537 187.069 60.901C189.612 58.5757 192.046 56.2503 194.372 53.925C194.662 53.6343 195.098 53.489 195.68 53.489C196.77 53.489 197.315 53.925 197.315 54.797C197.315 55.5963 196.806 56.5047 195.789 57.522C192.882 60.4287 190.266 62.9357 187.941 65.043C185.615 67.0777 183.399 68.749 181.292 70.057C179.911 70.8563 178.24 71.692 176.278 72.564C174.316 73.436 172.208 73.872 169.956 73.872C167.848 73.872 166.068 73.218 164.615 71.91C163.234 70.602 162.544 67.8043 162.544 63.517C162.544 61.8457 162.834 59.8837 163.416 57.631C163.997 55.3057 164.869 52.726 166.032 49.892L171.809 36.158L156.222 51.854C154.405 53.6707 152.915 55.1967 151.753 56.432C150.59 57.6673 149.645 58.6847 148.919 59.484C147.538 60.9373 146.303 62.3543 145.213 63.735C144.195 65.1157 143.323 66.3147 142.597 67.332C142.088 68.1313 141.507 68.531 140.853 68.531C139.617 68.531 139 68.0223 139 67.005C139 64.7523 141.034 59.5567 145.104 51.418C149.173 43.2793 151.208 38.4107 151.208 36.812C151.208 36.0853 150.408 35.722 148.81 35.722C142.342 35.722 130.825 46.295 114.257 67.441C112.876 69.403 110.587 72.346 107.39 76.27C107.172 76.5607 106.808 76.706 106.3 76.706ZM199.627 72.455C193.741 72.455 190.798 69.1487 190.798 62.536C190.798 59.484 191.524 56.2867 192.978 52.944C194.431 49.6013 196.357 46.513 198.755 43.679C201.153 40.7723 203.805 38.4107 206.712 36.594C209.691 34.7773 212.707 33.869 215.759 33.869C218.447 33.869 220.409 34.8863 221.645 36.921C222.88 38.9557 223.498 41.2083 223.498 43.679C223.498 46.949 222.844 50.2917 221.536 53.707C220.228 57.0497 218.447 60.138 216.195 62.972C213.942 65.806 211.399 68.095 208.565 69.839C205.731 71.583 202.751 72.455 199.627 72.455ZM199.518 68.967C199.954 68.967 200.208 68.9307 200.281 68.858C203.115 68.4947 205.731 67.4773 208.129 65.806C210.527 64.1347 212.598 62.0637 214.342 59.593C216.158 57.0497 217.539 54.3247 218.484 51.418C219.428 48.5113 219.901 45.641 219.901 42.807C219.901 41.1357 219.428 39.8277 218.484 38.883C217.539 37.9383 216.34 37.466 214.887 37.466C212.779 37.466 210.527 38.338 208.129 40.082C205.803 41.826 203.587 44.0423 201.48 46.731C199.445 49.4197 197.774 52.2537 196.466 55.233C195.158 58.1397 194.504 60.7557 194.504 63.081C194.504 67.005 196.175 68.967 199.518 68.967ZM229.276 76.597C225.206 76.597 223.172 75.2527 223.172 72.564C223.172 70.8927 223.753 69.2213 224.916 67.55C226.151 65.8787 227.604 64.3527 229.276 62.972C230.947 61.5913 232.509 60.5377 233.963 59.811C234.399 59.593 234.98 59.375 235.707 59.157C236.506 58.939 237.16 58.83 237.669 58.83C238.25 58.83 238.541 59.048 238.541 59.484C238.541 59.8473 238.141 60.247 237.342 60.683C233.999 62.2817 231.383 64.2073 229.494 66.46C227.677 68.64 226.769 70.4203 226.769 71.801C226.769 73.109 227.895 73.763 230.148 73.763C232.037 73.763 234.072 73.2907 236.252 72.346C238.504 71.4013 240.612 70.166 242.574 68.64C244.608 67.114 246.28 65.479 247.588 63.735C248.896 61.991 249.55 60.3197 249.55 58.721C249.55 57.631 249.186 56.65 248.46 55.778C247.806 54.906 246.716 54.252 245.19 53.816L237.996 51.636C236.179 51.0547 234.871 50.2917 234.072 49.347C233.272 48.4023 232.873 47.3487 232.873 46.186C232.873 44.006 233.672 42.044 235.271 40.3C236.942 38.556 239.013 37.1753 241.484 36.158C243.954 35.1407 246.352 34.632 248.678 34.632C251.003 34.632 253.038 35.2133 254.782 36.376C256.526 37.466 257.398 38.9557 257.398 40.845C257.398 41.935 257.071 42.9523 256.417 43.897C255.835 44.8417 255.145 45.314 254.346 45.314C253.11 45.314 252.493 44.8053 252.493 43.788C252.493 43.4247 252.674 42.9887 253.038 42.48C253.474 41.8987 253.692 41.3537 253.692 40.845C253.692 38.665 252.02 37.575 248.678 37.575C246.861 37.575 245.044 37.9747 243.228 38.774C241.484 39.5007 240.03 40.4817 238.868 41.717C237.705 42.9523 237.124 44.2967 237.124 45.75C237.124 47.2033 238.577 48.366 241.484 49.238L248.46 51.418C250.567 52.072 252.02 52.9803 252.82 54.143C253.619 55.233 254.019 56.4683 254.019 57.849C254.019 61.119 252.02 64.498 248.024 67.986C241.556 73.7267 235.307 76.597 229.276 76.597ZM255.062 103.084C251.646 103.084 249.939 100.65 249.939 95.781C249.939 89.3863 252.736 79.213 258.332 65.261C259.276 62.9357 260.403 60.5013 261.711 57.958C263.019 55.4147 264.545 52.726 266.289 49.892C268.105 46.84 269.813 44.1877 271.412 41.935C273.083 39.6823 274.536 37.8657 275.772 36.485C276.208 36.049 276.571 35.7583 276.862 35.613C277.225 35.4677 277.516 35.395 277.734 35.395C279.623 35.395 281.767 35.94 284.165 37.03C286.563 38.12 288.706 39.5007 290.596 41.172C292.34 42.6253 293.757 44.3693 294.847 46.404C295.937 48.4387 296.482 50.546 296.482 52.726C296.482 54.3247 296.155 55.9597 295.501 57.631C294.919 59.2297 294.12 60.8283 293.103 62.427C294.992 62.0637 297.281 61.228 299.97 59.92C302.731 58.612 305.529 56.6137 308.363 53.925C308.653 53.6343 309.053 53.489 309.562 53.489C310.652 53.489 311.197 53.925 311.197 54.797C311.197 55.1603 311.015 55.6327 310.652 56.214C310.361 56.7227 309.816 57.3767 309.017 58.176C303.639 63.1173 297.172 65.9513 289.615 66.678C288.525 67.8407 287.326 68.967 286.018 70.057C284.782 71.0743 283.474 72.019 282.094 72.891C277.879 75.4343 274.282 76.706 271.303 76.706C270.067 76.706 269.05 76.3063 268.251 75.507C267.451 74.7077 267.052 73.7993 267.052 72.782C267.052 69.4393 269.958 66.896 275.772 65.152C277.879 64.5707 279.986 64.062 282.094 63.626C284.201 63.19 286.272 62.7177 288.307 62.209C289.76 59.9563 290.814 57.9943 291.468 56.323C292.194 54.6517 292.558 53.2347 292.558 52.072C292.558 48.2207 289.687 44.551 283.947 41.063C281.694 39.6823 279.914 39.0283 278.606 39.101C272.647 45.641 267.015 54.797 261.711 66.569C256.188 78.7043 253.427 88.26 253.427 95.236C253.427 96.9073 253.572 98.0337 253.863 98.615C254.153 99.1963 254.662 99.487 255.389 99.487C255.607 99.487 255.788 99.4507 255.934 99.378C256.079 99.378 256.224 99.378 256.37 99.378C257.314 99.378 257.787 99.9593 257.787 101.122C257.787 102.43 256.878 103.084 255.062 103.084ZM272.066 73.218C274.754 73.218 278.642 71.1107 283.729 66.896C282.566 67.0413 281.44 67.223 280.35 67.441C279.332 67.659 277.843 68.0587 275.881 68.64C272.611 69.5847 270.976 70.7837 270.976 72.237C270.976 72.891 271.339 73.218 272.066 73.218ZM303.919 74.962C302.756 74.962 302.175 74.3807 302.175 73.218C302.175 71.692 302.72 69.294 303.81 66.024C304.9 62.6813 306.317 58.8663 308.061 54.579C309.877 50.219 311.803 45.75 313.838 41.172C315 38.6287 316.199 36.158 317.435 33.76C318.67 31.2893 319.833 29.1457 320.923 27.329C331.677 9.16233 338.363 0.0789968 340.979 0.0789968C341.996 0.0789968 342.505 0.587663 342.505 1.605C342.505 2.259 341.996 3.49433 340.979 5.31099C340.034 7.055 338.762 9.126 337.164 11.524C335.638 13.8493 333.966 16.211 332.15 18.609C330.406 21.007 328.734 23.2233 327.136 25.258C325.61 27.22 324.374 28.7097 323.43 29.727C322.63 30.6717 321.722 32.0523 320.705 33.869C319.76 35.6857 318.815 37.575 317.871 39.537C316.926 41.4263 316.163 43.0977 315.582 44.551L311.44 54.797C312.53 53.3437 313.947 51.7087 315.691 49.892C319.833 45.314 324.12 41.8623 328.553 39.537C333.058 37.139 336.837 35.94 339.889 35.94C341.56 35.94 342.904 36.4487 343.922 37.466C344.939 38.4833 345.448 39.7187 345.448 41.172C345.448 44.006 343.595 48.7657 339.889 55.451C336.183 62.0637 334.33 66.133 334.33 67.659C334.33 68.4583 334.766 68.858 335.638 68.858C337.672 68.858 339.889 68.1313 342.287 66.678C344.685 65.152 347.155 63.2263 349.699 60.901C352.242 58.5757 354.713 56.2503 357.111 53.925C357.401 53.6343 357.837 53.489 358.419 53.489C359.509 53.489 360.054 53.925 360.054 54.797C360.054 55.5963 359.545 56.5047 358.528 57.522C353.659 62.3907 349.481 66.024 345.993 68.422C342.505 70.82 338.835 72.019 334.984 72.019C332.077 72.019 330.624 70.6747 330.624 67.986C330.624 66.9687 330.805 65.9877 331.169 65.043C331.532 64.0983 332.113 62.8267 332.913 61.228L337.927 51.309C339.162 48.8383 340.07 46.7673 340.652 45.096C341.233 43.4247 341.524 42.153 341.524 41.281C341.524 40.0457 340.761 39.428 339.235 39.428C336.546 39.428 333.385 40.518 329.752 42.698C326.191 44.8053 322.376 48.0027 318.307 52.29C315.981 54.7607 313.874 57.3767 311.985 60.138C310.168 62.8993 308.715 65.8787 307.625 69.076L306.317 72.891C305.808 74.2717 305.009 74.962 303.919 74.962ZM364.453 74.962C361.401 74.962 359.003 73.9083 357.259 71.801C355.515 69.6937 354.643 67.114 354.643 64.062C354.643 58.83 356.387 53.4527 359.875 47.93C360.819 46.404 361.909 44.9143 363.145 43.461C364.38 41.935 365.724 40.4817 367.178 39.101C369.358 36.9937 371.647 35.2497 374.045 33.869C376.443 32.4883 378.768 31.798 381.021 31.798C384.727 31.798 386.58 33.542 386.58 37.03C386.58 41.39 384.036 45.3503 378.95 48.911C374.226 52.1083 369.576 53.707 364.998 53.707C364.198 53.707 363.472 53.6707 362.818 53.598C362.236 53.4527 361.691 53.3073 361.183 53.162C360.456 54.5427 359.802 56.323 359.221 58.503C358.639 60.683 358.349 62.5723 358.349 64.171C358.349 68.967 360.456 71.365 364.671 71.365C368.086 71.365 371.32 70.7837 374.372 69.621C377.424 68.3857 381.057 66.0967 385.272 62.754C387.888 60.7193 389.85 59.0843 391.158 57.849C392.466 56.6137 393.883 55.3057 395.409 53.925C395.845 53.6343 396.244 53.489 396.608 53.489C396.971 53.489 397.334 53.598 397.698 53.816C398.061 54.034 398.243 54.361 398.243 54.797C398.243 55.5963 397.516 56.7227 396.063 58.176C394.827 59.3387 393.519 60.574 392.139 61.882C390.758 63.1173 388.578 64.8613 385.599 67.114C382.401 69.5847 378.913 71.5103 375.135 72.891C371.356 74.2717 367.795 74.962 364.453 74.962ZM364.344 50.219C366.669 50.219 368.885 49.8557 370.993 49.129C373.1 48.4023 375.098 47.3487 376.988 45.968C381.202 42.8433 383.31 39.9003 383.31 37.139C383.31 35.9037 382.547 35.286 381.021 35.286C378.114 35.286 374.735 37.0663 370.884 40.627C368.994 42.371 367.432 43.9697 366.197 45.423C365.034 46.8037 363.944 48.3297 362.927 50.001C363.363 50.1463 363.835 50.219 364.344 50.219ZM388.058 75.725C386.895 75.725 386.314 75.2527 386.314 74.308C386.314 73.872 386.423 73.436 386.641 73C386.932 72.564 387.15 72.2007 387.295 71.91L397.214 51.854C401.429 43.2793 403.536 38.5197 403.536 37.575C403.536 36.5577 404.045 36.049 405.062 36.049C406.443 36.049 407.133 36.7393 407.133 38.12C407.133 38.8467 406.806 40.0093 406.152 41.608C405.498 43.2067 404.662 45.0597 403.645 47.167C401.901 50.9457 400.448 53.8523 399.285 55.887C401.465 53.3437 403.681 50.9457 405.934 48.693C408.187 46.4403 410.476 44.2967 412.801 42.262C419.704 36.2307 425.009 33.215 428.715 33.215C431.258 33.215 432.53 34.414 432.53 36.812C432.53 39.1373 431.767 40.3 430.241 40.3C429.514 40.3 428.969 39.6823 428.606 38.447C428.388 37.575 427.879 37.139 427.08 37.139C425.845 37.139 423.447 38.4833 419.886 41.172C415.962 44.0787 412.002 47.5303 408.005 51.527C404.081 55.5237 399.903 60.6103 395.47 66.787L390.02 74.417C389.729 74.7803 389.439 75.071 389.148 75.289C388.93 75.5797 388.567 75.725 388.058 75.725ZM437.794 74.962C434.742 74.962 432.344 73.9083 430.6 71.801C428.856 69.6937 427.984 67.114 427.984 64.062C427.984 58.83 429.728 53.4527 433.216 47.93C434.16 46.404 435.25 44.9143 436.486 43.461C437.721 41.935 439.065 40.4817 440.519 39.101C442.699 36.9937 444.988 35.2497 447.386 33.869C449.784 32.4883 452.109 31.798 454.362 31.798C458.068 31.798 459.921 33.542 459.921 37.03C459.921 41.39 457.377 45.3503 452.291 48.911C447.567 52.1083 442.917 53.707 438.339 53.707C437.539 53.707 436.813 53.6707 436.159 53.598C435.577 53.4527 435.032 53.3073 434.524 53.162C433.797 54.5427 433.143 56.323 432.562 58.503C431.98 60.683 431.69 62.5723 431.69 64.171C431.69 68.967 433.797 71.365 438.012 71.365C441.427 71.365 444.661 70.7837 447.713 69.621C450.765 68.3857 454.398 66.0967 458.613 62.754C461.229 60.7193 463.191 59.0843 464.499 57.849C465.807 56.6137 467.224 55.3057 468.75 53.925C469.186 53.6343 469.585 53.489 469.949 53.489C470.312 53.489 470.675 53.598 471.039 53.816C471.402 54.034 471.584 54.361 471.584 54.797C471.584 55.5963 470.857 56.7227 469.404 58.176C468.168 59.3387 466.86 60.574 465.48 61.882C464.099 63.1173 461.919 64.8613 458.94 67.114C455.742 69.5847 452.254 71.5103 448.476 72.891C444.697 74.2717 441.136 74.962 437.794 74.962ZM437.685 50.219C440.01 50.219 442.226 49.8557 444.334 49.129C446.441 48.4023 448.439 47.3487 450.329 45.968C454.543 42.8433 456.651 39.9003 456.651 37.139C456.651 35.9037 455.888 35.286 454.362 35.286C451.455 35.286 448.076 37.0663 444.225 40.627C442.335 42.371 440.773 43.9697 439.538 45.423C438.375 46.8037 437.285 48.3297 436.268 50.001C436.704 50.1463 437.176 50.219 437.685 50.219Z" fill="white"/>
</g>
<defs>
<filter id="filter0_d_173_20300" x="0.331055" y="0.0789795" width="475.253" height="111.005" filterUnits="userSpaceOnUse" color-interpolation-filters="sRGB">
<feFlood flood-opacity="0" result="BackgroundImageFix"/>
<feColorMatrix in="SourceAlpha" type="matrix" values="0 0 0 0 0 0 0 0 0 0 0 0 0 0 0 0 0 0 127 0" result="hardAlpha"/>
<feOffset dy="4"/>
<feGaussianBlur stdDeviation="2"/>
<feComposite in2="hardAlpha" operator="out"/>
<feColorMatrix type="matrix" values="0 0 0 0 0 0 0 0 0 0 0 0 0 0 0 0 0 0 0.4 0"/>
<feBlend mode="normal" in2="BackgroundImageFix" result="effect1_dropShadow_173_20300"/>
<feBlend mode="normal" in="SourceGraphic" in2="effect1_dropShadow_173_20300" result="shape"/>
</filter>
</defs>
</svg>
