<svg width="32" height="32" viewBox="0 0 32 32" fill="none" xmlns="http://www.w3.org/2000/svg">
<path d="M5.04117 5.03969L5.04106 5.0398C2.13423 7.94672 0.500831 11.8891 0.5 16L5.04117 5.03969ZM5.04117 5.03969C7.94482 2.1341 11.8901 0.5 16 0.5C20.1099 0.5 24.0552 2.1341 26.9588 5.03969L26.959 5.03983C29.8652 7.94559 31.5 11.8909 31.5 16C31.5 20.1091 29.8652 24.0544 26.959 26.9602L26.9588 26.9603C24.0552 29.8659 20.1099 31.5 16 31.5C11.8901 31.5 7.94482 29.8659 5.04117 26.9603L5.04102 26.9602M5.04117 5.03969L5.04102 26.9602M5.04102 26.9602C2.1348 24.0544 0.500026 20.1091 0.5 16.0001L5.04102 26.9602Z" stroke="white"/>
<path d="M16 11.9412C15.1972 11.9412 14.4125 12.1792 13.745 12.6252C13.0776 13.0712 12.5573 13.7051 12.2501 14.4468C11.9429 15.1884 11.8626 16.0045 12.0192 16.7918C12.1758 17.5792 12.5623 18.3024 13.13 18.87C13.6976 19.4377 14.4208 19.8242 15.2082 19.9808C15.9955 20.1374 16.8116 20.0571 17.5532 19.7499C18.2949 19.4427 18.9288 18.9224 19.3748 18.255C19.8208 17.5875 20.0588 16.8028 20.0588 16C20.0574 14.924 19.6293 13.8924 18.8685 13.1315C18.1076 12.3707 17.076 11.9426 16 11.9412ZM16 19C15.4067 19 14.8266 18.8241 14.3333 18.4944C13.8399 18.1648 13.4554 17.6962 13.2284 17.1481C13.0013 16.5999 12.9419 15.9967 13.0576 15.4147C13.1734 14.8328 13.4591 14.2982 13.8787 13.8787C14.2982 13.4591 14.8328 13.1734 15.4147 13.0576C15.9967 12.9419 16.5999 13.0013 17.1481 13.2284C17.6962 13.4554 18.1648 13.8399 18.4944 14.3333C18.8241 14.8266 19 15.4067 19 16C19 16.7956 18.6839 17.5587 18.1213 18.1213C17.5587 18.6839 16.7956 19 16 19ZM20.2353 7H11.7647C10.5015 7.0014 9.29035 7.50385 8.3971 8.3971C7.50385 9.29035 7.0014 10.5015 7 11.7647V20.2353C7.0014 21.4985 7.50385 22.7097 8.3971 23.6029C9.29035 24.4962 10.5015 24.9986 11.7647 25H20.2353C21.4985 24.9986 22.7097 24.4962 23.6029 23.6029C24.4962 22.7097 24.9986 21.4985 25 20.2353V11.7647C24.9986 10.5015 24.4962 9.29035 23.6029 8.3971C22.7097 7.50385 21.4985 7.0014 20.2353 7ZM23.9412 20.2353C23.9412 21.2182 23.5507 22.1608 22.8557 22.8557C22.1608 23.5507 21.2182 23.9412 20.2353 23.9412H11.7647C10.7818 23.9412 9.83924 23.5507 9.14425 22.8557C8.44926 22.1608 8.05882 21.2182 8.05882 20.2353V11.7647C8.05882 10.7818 8.44926 9.83924 9.14425 9.14425C9.83924 8.44926 10.7818 8.05882 11.7647 8.05882H20.2353C21.2182 8.05882 22.1608 8.44926 22.8557 9.14425C23.5507 9.83924 23.9412 10.7818 23.9412 11.7647V20.2353ZM21.4706 11.4118C21.4706 11.5863 21.4188 11.7569 21.3219 11.902C21.2249 12.0471 21.0871 12.1602 20.9259 12.227C20.7647 12.2937 20.5873 12.3112 20.4161 12.2772C20.2449 12.2431 20.0877 12.1591 19.9643 12.0357C19.8409 11.9123 19.7569 11.7551 19.7228 11.5839C19.6888 11.4127 19.7063 11.2353 19.773 11.0741C19.8398 10.9129 19.9529 10.7751 20.098 10.6781C20.2431 10.5812 20.4137 10.5294 20.5882 10.5294C20.8223 10.5294 21.0467 10.6224 21.2122 10.7878C21.3776 10.9533 21.4706 11.1778 21.4706 11.4118Z" fill="#F8F8F8"/>
</svg>
