<svg width="112" height="79" viewBox="0 0 112 79" fill="none" xmlns="http://www.w3.org/2000/svg">
<path fill-rule="evenodd" clip-rule="evenodd" d="M76.9023 35.9664C80.3748 33.5104 94.3541 22.1037 90.8451 17.4611C87.7225 13.3295 76.5153 18.9679 73.7978 20.5702C67.5289 24.2665 50.5339 37.9679 49.78 44.2477C49.525 46.373 53.8373 46.3427 55.1755 46.0826C59.4719 45.2476 72.5693 37.181 70.8654 46.4846L71.0131 46.3838C72.3318 45.4894 76.4988 43.0111 77.3697 42.1831C77.3199 42.2321 77.313 42.2466 77.2865 42.2962C77.3776 42.2114 77.4691 42.1327 77.5608 42.0613L78.2519 42.7546C78.1245 42.9725 78.0936 42.9869 77.887 43.1409L77.8764 43.1489L75.8987 46.0193C74.8943 47.9159 73.8111 50.9108 72.6657 53.7262C74.6146 51.1429 78.0301 47.1287 78.4282 50.8139C80.9003 48.7547 84.0786 46.4823 85.7528 44.7377C86.5751 42.9865 87.3499 41.9544 87.8593 42.6096C88.3092 43.188 87.9432 43.9707 87.1088 44.8845C85.858 47.8012 83.7342 52.7103 83.1598 55.2013C85.9724 52.0461 88.4115 47.0783 88.1035 53.8653C88.6154 53.6572 89.6542 52.9145 90.7149 52.0095C90.5898 49.5661 91.734 46.4944 93.4075 46.5463C97.0174 46.8736 93.4807 50.8177 92.4204 51.8995C92.2095 52.1146 92.0067 52.3166 91.8118 52.5069C92.0879 53.9712 93.1287 54.6765 95.3214 52.5365C96.822 51.072 97.1244 49.5262 97.5512 47.5909C97.5947 47.2994 97.8688 47.0984 98.1635 47.1415C98.4583 47.1846 98.6618 47.4558 98.6184 47.7474C98.068 50.2411 97.5137 52.425 95.2392 53.9845C92.7514 55.6901 91.4274 54.9077 90.9343 53.3288C86.367 57.4097 87.0625 53.3767 87.1135 51.8767C85.7891 53.2759 82.4631 58.8477 81.9532 56.4569C81.8821 56.1233 83.2978 50.9169 84.8273 46.9395C82.8269 48.5525 80.2972 50.3533 78.4567 52.0872C78.2046 58.1425 73.6325 58.913 75.0519 54.5144C75.2953 53.7603 76.1706 52.8012 77.3426 51.7492C77.339 51.3521 77.2964 50.9725 77.208 50.6302C75.5293 52.0549 72.6958 55.4764 70.2816 58.9124C68.7635 61.9701 67.5724 64.4346 66.1029 67.8301C65.6768 68.8146 62.2219 68.7257 69.3673 58.3063C69.6217 57.8099 69.8778 57.306 70.1344 56.7913C71.6481 53.754 73.4396 48.4073 75.3886 44.9199C73.7828 46.0202 72.1148 47.0994 70.4382 48.2077C70.3888 48.3711 70.3374 48.537 70.2811 48.7085C68.6955 53.5324 57.8574 71.2399 51.9172 67.9722C46.135 64.7911 63.9285 51.4124 69.599 47.3729C72.794 37.2581 57.9413 48.4851 51.9744 47.243C43.4624 45.471 54.3631 35.2179 56.7432 32.7992C62.7323 26.7131 82.1811 10.3942 90.787 15.9784C97.9879 20.6512 81.065 34.3342 77.5104 36.8481C77.2645 37.014 76.9288 36.9513 76.7608 36.7078C76.5929 36.4643 76.6562 36.1323 76.9023 35.9664ZM91.7564 51.0715C93.4493 49.4583 94.7413 47.7366 93.3223 47.6077C92.4816 47.9794 91.8773 49.5794 91.7564 51.0715ZM93.4075 46.5463C93.4141 46.5467 93.4204 46.5457 93.4271 46.5461L93.3582 46.5414C93.3752 46.5429 93.3909 46.5449 93.4075 46.5463ZM77.149 53.4635C76.3944 54.3809 75.9429 55.258 75.994 56.053C76.4923 55.4744 76.9157 54.5019 77.149 53.4635ZM68.9095 49.2272C67.5154 50.1674 66.1265 51.1382 64.7737 52.1691C63.1069 53.4391 48.896 65.0943 52.4396 67.0388C56.7257 69.391 65.6577 55.8317 67.4044 52.4263C68.0228 51.2208 68.5196 50.1603 68.9095 49.2272Z" fill="white"/>
<path fill-rule="evenodd" clip-rule="evenodd" d="M35.452 50.8397C35.1066 53.0304 34.8362 55.2051 34.321 57.3439C36.4291 54.3012 40.1174 49.2237 39.2341 55.0222C39.1842 55.351 39.0855 55.872 39.1017 56.2762C40.5776 55.1885 44.9732 48.4233 43.5957 55.5279C43.5069 55.9853 43.093 57.7605 43.1377 58.5852C43.7833 57.7085 46.4626 54.0277 48.3621 52.0697C48.7355 51.1259 49.2958 50.2934 50.2146 49.8222C55.4605 47.1319 56.2371 55.7831 50.6033 58.1414C47.9114 59.2684 47.5357 57.7796 47.8486 55.9148C47.642 55.8089 47.52 55.5824 47.5637 55.3477C47.6174 55.0695 47.6707 54.7737 47.7286 54.4685C46.1466 56.5482 44.5216 58.9917 43.8665 59.5068C41.3199 61.5092 42.168 56.3276 42.6204 54.1217C37.0271 60.5889 38.254 56.3323 38.3413 53.8669C36.606 55.7223 33.4716 61.8445 32.6546 59.835C32.5902 59.6763 34.3287 50.9234 34.352 50.7758C34.3697 50.4817 34.6303 50.2575 34.934 50.2752C35.2376 50.2929 35.4695 50.5455 35.452 50.8397ZM50.3005 51.0613C50.3346 51.1811 50.3418 51.3504 50.3174 51.5755C50.1879 52.7806 46.5602 59.4538 50.7431 56.8611C54.3623 54.6175 54.299 48.9355 50.7332 50.7645C50.5764 50.8449 50.4328 50.9452 50.3005 51.0613Z" fill="white"/>
<path fill-rule="evenodd" clip-rule="evenodd" d="M29.8559 41.0606C29.4115 45.2354 24.2536 58.6612 25.6788 60.6938C26.7811 62.2659 33.0505 54.9943 33.325 54.6758C33.5153 54.4464 33.8622 54.4105 34.0994 54.5954C34.3367 54.7804 34.3744 55.1162 34.1839 55.3456C32.7593 56.9984 28.8378 61.9403 26.0579 61.9297C21.2754 61.9118 28.2561 45.1867 28.7769 41.2741C28.7153 40.9856 28.907 40.7037 29.2051 40.6447C29.503 40.5857 29.7944 40.7719 29.8559 41.0606Z" fill="white"/>
<path fill-rule="evenodd" clip-rule="evenodd" d="M23.2725 52.2021C26.0266 51.1296 28.419 49.771 30.9847 48.3482C31.2296 48.1738 31.5744 48.2248 31.755 48.4624C31.9357 48.6997 31.8835 49.0337 31.6387 49.2081C28.688 50.8637 26.4685 52.1815 23.209 53.2673C22.9053 53.2498 22.6732 52.9971 22.6907 52.7029C22.7083 52.4088 22.9688 52.1846 23.2725 52.2021Z" fill="white"/>
<path fill-rule="evenodd" clip-rule="evenodd" d="M17.3593 65.0416C18.4843 59.3568 28.8262 30.575 27.5198 27.7516C27.516 27.7433 27.5115 27.7348 27.5064 27.7263C23.4013 28.0542 8.43048 53.8446 6.48456 58.7972C6.30971 59.2423 6.12853 59.715 5.94304 60.2093L6.09335 60.1329C10.3192 57.9611 15.1705 55.0762 19.383 53.3365C19.6854 53.3048 19.9575 53.5163 19.9909 53.8094C20.0243 54.1023 19.8063 54.3654 19.5038 54.3973C15.169 56.5495 10.9165 58.863 6.61231 61.075C6.20884 61.2824 5.80572 61.4729 5.41163 61.6502C4.60342 63.8779 3.75027 66.3872 2.99493 68.7314C2.76125 70.5402 1.97632 72.4983 1.5299 73.3511L0.69931 73.3685C0.652575 73.2467 0.660696 73.0049 0.713927 72.6653L0.683971 72.6658L0.632005 72.7219C0.673146 72.6061 0.728537 72.4423 0.793136 72.2429C0.953372 71.4814 1.25833 70.4109 1.64971 69.1739C1.92327 67.9812 2.08386 66.8737 1.86661 66.5041C-2.18637 63.706 1.12389 62.4401 4.57165 60.8626C5.53794 58.2882 6.38098 56.1695 6.66879 55.551C8.29496 52.0566 25.5 22.5349 28.4422 27.1647C30.3702 30.199 19.6527 59.2302 18.4611 65.0406C18.4618 65.3351 18.216 65.5742 17.9118 65.5746C17.6075 65.5748 17.3602 65.3362 17.3593 65.0416ZM4.06172 62.2327C1.59468 63.2708 0.0284161 63.9083 2.11617 65.3685C2.3641 65.5419 2.55537 65.7668 2.69918 66.0301C3.13586 64.7736 3.60393 63.474 4.06172 62.2327Z" fill="white"/>
<path fill-rule="evenodd" clip-rule="evenodd" d="M97.568 47.9433C98.3418 44.4697 99.2841 46.3055 100.408 47.1187C101.822 44.6275 104.227 44.4802 103.809 45.8743C103.046 48.4192 101.966 48.7727 101.002 48.4602C99.9542 51.2673 99.9236 54.9272 104.762 50.6182C104.56 48.4113 105.777 45.5057 108.284 44.9875C111.313 44.3615 108.785 48.2515 105.668 51.0179C105.88 52.0829 106.887 52.5126 109.259 51.0976C110.193 50.5409 110.765 49.9958 111.031 48.9078C111.069 48.6223 111.315 48.4226 111.581 48.4618C111.847 48.5011 112.033 48.7646 111.995 49.0501C111.758 50.0251 111.516 50.5894 110.755 51.2579C107.481 54.1358 105.589 53.4001 104.969 51.6114C102.303 53.7668 99.4808 54.8379 99.4313 51.4956C99.4098 50.0472 99.6464 48.8672 100.02 47.9296C99.4638 47.5272 99.0329 47.0738 98.8604 47.039C98.6733 47.2365 98.5616 47.964 98.5269 48.1215C98.48 48.4057 98.2276 48.596 97.9627 48.5467C97.698 48.4975 97.5213 48.2275 97.568 47.9433ZM101.466 47.404C101.854 47.2882 102.26 46.8842 102.685 45.9935C102.31 46.0721 101.863 46.6354 101.466 47.404ZM105.705 49.75C106.626 48.8764 108.709 46.8022 108.616 45.9964C107.484 45.7188 106.059 47.933 105.705 49.75Z" fill="white"/>
<path d="M111.51 43.3211C111.523 43.671 111.251 43.966 110.9 43.9798C110.55 43.9935 110.255 43.7208 110.241 43.3709C110.224 42.9415 110.193 41.8476 110.162 40.6627C110.122 39.1352 110.081 37.4543 110.071 36.8885C109.88 26.4983 106.247 18.6206 100.729 13.002C96.8986 9.10134 92.1553 6.28192 87.0218 4.46164C81.8723 2.6354 76.3337 1.8139 70.9304 1.91291C61.2972 2.08965 52.1051 5.187 46.3296 10.7267L46.3015 14.7869C46.3002 15.1368 46.015 15.4194 45.6649 15.4181C45.3148 15.4169 45.0321 15.1317 45.0333 14.7818L45.0653 10.1861L45.2522 10.0025C51.2493 4.11968 60.8611 0.829719 70.9106 0.6454C76.4632 0.543682 82.1539 1.38756 87.4444 3.26375C92.7515 5.14553 97.6612 8.06629 101.634 12.1121C107.367 17.9497 111.142 26.1169 111.339 36.8687C111.349 37.4168 111.39 39.0919 111.43 40.6328C111.46 41.7858 111.491 42.8643 111.51 43.3211Z" fill="white"/>
<path d="M33.8336 16.292H58.5863L60.3662 26.6504H31.0511L33.3222 16.292H33.8336ZM57.5149 17.5645H34.3452L32.6322 25.3779H58.8574L57.5149 17.5645Z" fill="white"/>
<path d="M49.1889 27.7515C49.1889 27.4002 49.474 27.1152 49.8255 27.1152C50.1771 27.1152 50.4622 27.4002 50.4622 27.7515C50.4622 28.5303 49.8546 29.1882 48.8724 29.6216C48.0492 29.9848 46.9252 30.2099 45.6971 30.2099C44.469 30.2099 43.345 29.9848 42.5219 29.6216C41.5397 29.1882 40.9321 28.5303 40.9321 27.7515C40.9321 27.4002 41.2172 27.1152 41.5687 27.1152C41.9202 27.1152 42.2054 27.4002 42.2054 27.7515C42.2054 27.9789 42.5222 28.2325 43.034 28.4583C43.7043 28.7541 44.6453 28.9373 45.6971 28.9373C46.749 28.9373 47.69 28.7541 48.3603 28.4583C48.8721 28.2325 49.1889 27.9789 49.1889 27.7515Z" fill="white"/>
<path d="M109.841 55.5142C109.841 55.1629 110.126 54.8779 110.477 54.8779C110.829 54.8779 111.114 55.1629 111.114 55.5142V65.5711H72.3462C71.9947 65.5711 71.7096 65.2862 71.7096 64.9348C71.7096 64.5835 71.9947 64.2985 72.3462 64.2985H109.841V55.5142ZM47.9484 64.2985C48.2999 64.2985 48.585 64.5835 48.585 64.9348C48.585 65.2862 48.2999 65.5711 47.9484 65.5711H24.4783C24.1268 65.5711 23.8417 65.2862 23.8417 64.9348C23.8417 64.5835 24.1268 64.2985 24.4783 64.2985H47.9484Z" fill="white"/>
<path d="M69.7571 77.9066V69.1547H71.5054C72.1196 69.1547 72.5735 69.1873 72.8669 69.2526C73.1583 69.3199 73.4105 69.4321 73.6199 69.5913C73.8878 69.7973 74.0951 70.0646 74.2417 70.389C74.3886 70.7133 74.4629 71.0704 74.4629 71.456C74.4629 71.9189 74.3572 72.3045 74.1441 72.6147C73.9328 72.9267 73.6238 73.143 73.2187 73.2674C73.7137 73.3469 74.1069 73.5796 74.3943 73.9632C74.682 74.3486 74.8267 74.8343 74.8267 75.4197C74.8267 75.7707 74.7661 76.1052 74.6426 76.4234C74.5216 76.7417 74.3514 77.0151 74.1341 77.2436C73.8976 77.4864 73.6042 77.6577 73.2581 77.7576C72.9098 77.8577 72.325 77.9066 71.5054 77.9066H69.7571ZM70.7311 73.8061V77.0009H71.5054C72.0356 77.0009 72.419 76.9783 72.6536 76.9356C72.8883 76.8907 73.0762 76.8151 73.2187 76.7071C73.3891 76.5805 73.524 76.403 73.6218 76.1745C73.7216 75.9481 73.7704 75.6971 73.7704 75.4217C73.7704 75.1014 73.7117 74.824 73.5924 74.5894C73.4751 74.3547 73.303 74.1712 73.078 74.0386C72.9452 73.9549 72.7905 73.8958 72.6146 73.8591C72.4405 73.8243 72.1667 73.8061 71.797 73.8061H71.5054H70.7311ZM70.7311 70.0604V72.9859H71.5054C72.2156 72.9859 72.7162 72.8779 73.0056 72.6636C73.2972 72.4493 73.4419 72.0863 73.4419 71.5763C73.4419 71.0152 73.3068 70.6235 73.0368 70.3971C72.7691 70.1726 72.2566 70.0604 71.5054 70.0604H70.7311ZM76.317 69.1547H77.3262V74.6016C77.3262 75.487 77.5061 76.1357 77.8679 76.55C78.2299 76.9641 78.795 77.1722 79.5675 77.1722C80.3402 77.1722 80.9053 76.9641 81.2673 76.55C81.6291 76.1357 81.809 75.487 81.809 74.6016V69.1547H82.8182V74.6016C82.8182 75.7849 82.5483 76.6703 82.0084 77.2579C81.4667 77.8454 80.6531 78.1392 79.5657 78.1392C78.4802 78.1392 77.6685 77.8454 77.1266 77.2579C76.5869 76.6703 76.317 75.7849 76.317 74.6016V69.1547ZM84.8035 77.9066V69.1547H86.775C87.3362 69.1547 87.7489 69.1873 88.0091 69.2526C88.2711 69.3199 88.5019 69.4321 88.7015 69.5913C88.9499 69.7933 89.1416 70.0665 89.2785 70.4072C89.4173 70.7479 89.4859 71.1254 89.4859 71.5395C89.4859 72.2556 89.294 72.8023 88.9108 73.1736C88.5255 73.5469 87.964 73.7325 87.2227 73.7325H87.0448L90.2484 77.9066H88.9813L85.9183 73.7325H85.7775V77.9066H84.8035ZM85.7775 70.0361V72.9615H86.5383C87.3187 72.9615 87.8409 72.8575 88.1049 72.6474C88.3691 72.4392 88.5001 72.074 88.5001 71.5517C88.5001 70.9907 88.3649 70.5991 88.0932 70.3726C87.8214 70.1482 87.303 70.0361 86.5383 70.0361H85.7775ZM91.0837 77.9066V69.1547H95.5078V70.1095H92.0812V72.6187H95.5078V73.5857H92.0812V76.9395H95.5078V77.9066H91.0837ZM99.8479 71.1131L98.5141 74.3324H101.184L99.8479 71.1131ZM99.8479 68.812L103.664 77.9066H102.582L101.493 75.2258H98.2167L97.1273 77.9066H96.0478L99.8479 68.812ZM104.292 69.1547H105.301V74.6016C105.301 75.487 105.481 76.1357 105.842 76.55C106.204 76.9641 106.77 77.1722 107.542 77.1722C108.315 77.1722 108.88 76.9641 109.242 76.55C109.604 76.1357 109.784 75.487 109.784 74.6016V69.1547H110.793V74.6016C110.793 75.7849 110.523 76.6703 109.983 77.2579C109.441 77.8454 108.628 78.1392 107.54 78.1392C106.455 78.1392 105.643 77.8454 105.101 77.2579C104.562 76.6703 104.292 75.7849 104.292 74.6016V69.1547Z" fill="white"/>
</svg>
