<svg width="63" height="44" viewBox="0 0 63 44" fill="none" xmlns="http://www.w3.org/2000/svg">
<path fill-rule="evenodd" clip-rule="evenodd" d="M42.8056 20.5257C44.7384 19.1587 52.5196 12.8095 50.5664 10.2253C48.8283 7.92557 42.5901 11.0641 41.0775 11.9559C37.5881 14.0133 28.1284 21.6398 27.7087 25.1353C27.5668 26.3183 29.9671 26.3014 30.712 26.1567C33.1034 25.6919 40.3937 21.2019 39.4453 26.3804L39.5275 26.3243C40.2615 25.8265 42.581 24.447 43.0657 23.9861C43.038 24.0134 43.0342 24.0214 43.0194 24.049C43.0701 24.0018 43.1211 23.9581 43.1721 23.9183L43.5568 24.3042C43.4858 24.4255 43.4687 24.4335 43.3537 24.5192L43.3477 24.5237L42.2469 26.1214C41.6879 27.1771 41.085 28.8441 40.4474 30.4112C41.5322 28.9733 43.4333 26.7389 43.6549 28.7902C45.0309 27.644 46.8001 26.3791 47.7319 25.4081C48.1896 24.4333 48.6209 23.8588 48.9045 24.2235C49.1549 24.5454 48.9512 24.9811 48.4867 25.4898C47.7905 27.1132 46.6083 29.8458 46.2886 31.2323C47.8542 29.476 49.2118 26.7109 49.0404 30.4886C49.3253 30.3728 49.9035 29.9594 50.4939 29.4557C50.4243 28.0956 51.0612 26.3858 51.9927 26.4147C54.0021 26.5969 52.0334 28.7923 51.4433 29.3944C51.3258 29.5142 51.213 29.6266 51.1045 29.7325C51.2582 30.5476 51.8375 30.9402 53.058 29.749C53.8933 28.9339 54.0616 28.0734 54.2992 26.9962C54.3234 26.834 54.4759 26.722 54.64 26.746C54.8041 26.77 54.9174 26.921 54.8932 27.0833C54.5868 28.4714 54.2783 29.687 53.0122 30.555C51.6275 31.5044 50.8906 31.0689 50.6161 30.19C48.0738 32.4615 48.4609 30.2167 48.4893 29.3818C47.7521 30.1606 45.9008 33.2619 45.617 31.9312C45.5774 31.7455 46.3654 28.8475 47.2168 26.6336C46.1033 27.5314 44.6952 28.5338 43.6708 29.4989C43.5304 32.8694 40.9855 33.2983 41.7756 30.8499C41.9111 30.4302 42.3983 29.8964 43.0506 29.3108C43.0486 29.0897 43.0249 28.8784 42.9757 28.6879C42.0413 29.481 40.4641 31.3854 39.1204 33.298C38.2754 34.9999 37.6124 36.3717 36.7944 38.2617C36.5572 38.8097 34.6341 38.7602 38.6114 32.9606C38.753 32.6843 38.8956 32.4038 39.0384 32.1173C39.881 30.4267 40.8781 27.4506 41.963 25.5094C41.0692 26.1219 40.1407 26.7226 39.2075 27.3395C39.18 27.4305 39.1514 27.5228 39.12 27.6183C38.2375 30.3033 32.2048 40.1597 28.8983 38.3408C25.6798 36.5702 35.5841 29.1233 38.7404 26.8748C40.5188 21.2447 32.2515 27.4939 28.9302 26.8025C24.1922 25.8162 30.2598 20.1091 31.5846 18.7628C34.9183 15.3752 45.7438 6.29177 50.5341 9.40006C54.5422 12.001 45.1226 19.6172 43.1441 21.0165C43.0072 21.1089 42.8203 21.074 42.7268 20.9384C42.6333 20.8029 42.6686 20.6181 42.8056 20.5257ZM51.0736 28.9336C52.016 28.0356 52.7351 27.0773 51.9453 27.0055C51.4773 27.2124 51.1409 28.1031 51.0736 28.9336ZM51.9927 26.4147C51.9964 26.4149 51.9999 26.4144 52.0036 26.4146L51.9653 26.412C51.9747 26.4128 51.9834 26.4139 51.9927 26.4147ZM42.9429 30.265C42.5228 30.7757 42.2715 31.2638 42.3 31.7063C42.5774 31.3843 42.813 30.843 42.9429 30.265ZM38.3566 27.907C37.5806 28.4303 36.8075 28.9707 36.0545 29.5445C35.1268 30.2514 27.2167 36.7389 29.1891 37.8213C31.5748 39.1306 36.5466 31.5832 37.5188 29.6877C37.8631 29.0167 38.1396 28.4264 38.3566 27.907Z" fill="white"/>
<path fill-rule="evenodd" clip-rule="evenodd" d="M19.7329 28.8046C19.5406 30.024 19.3901 31.2345 19.1033 32.425C20.2768 30.7313 22.3297 27.9051 21.8381 31.1327C21.8103 31.3157 21.7553 31.6057 21.7644 31.8307C22.5859 31.2252 25.0326 27.4596 24.2658 31.4142C24.2164 31.6687 23.986 32.6569 24.0109 33.1159C24.3703 32.6279 25.8616 30.5791 26.9189 29.4892C27.1267 28.9639 27.4386 28.5005 27.95 28.2382C30.87 26.7408 31.3023 31.5562 28.1664 32.8689C26.668 33.4962 26.4589 32.6675 26.6331 31.6295C26.5181 31.5706 26.4502 31.4445 26.4745 31.3139C26.5044 31.159 26.534 30.9943 26.5663 30.8245C25.6857 31.9821 24.7812 33.3422 24.4166 33.6289C22.9991 34.7435 23.4711 31.8593 23.7229 30.6314C20.6096 34.2312 21.2925 31.8619 21.3411 30.4896C20.3752 31.5224 18.6306 34.9301 18.1758 33.8116C18.1399 33.7233 19.1077 28.8512 19.1206 28.7691C19.1305 28.6053 19.2755 28.4805 19.4445 28.4904C19.6136 28.5002 19.7426 28.6409 19.7329 28.8046ZM27.9979 28.928C28.0168 28.9946 28.0209 29.0889 28.0073 29.2142C27.9352 29.885 25.9159 33.5994 28.2442 32.1562C30.2587 30.9074 30.2235 27.7447 28.2387 28.7627C28.1514 28.8075 28.0715 28.8633 27.9979 28.928Z" fill="white"/>
<path fill-rule="evenodd" clip-rule="evenodd" d="M16.6186 23.3611C16.3712 25.6849 13.5003 33.158 14.2936 34.2893C14.9071 35.1644 18.3968 31.1169 18.5496 30.9396C18.6555 30.8119 18.8486 30.7919 18.9807 30.8948C19.1127 30.9978 19.1337 31.1848 19.0277 31.3124C18.2347 32.2324 16.052 34.9832 14.5046 34.9773C11.8425 34.9673 15.7281 25.6578 16.018 23.48C15.9838 23.3193 16.0904 23.1624 16.2563 23.1296C16.4222 23.0968 16.5844 23.2004 16.6186 23.3611Z" fill="white"/>
<path fill-rule="evenodd" clip-rule="evenodd" d="M12.9542 29.5627C14.4872 28.9657 15.8188 28.2095 17.247 27.4175C17.3833 27.3204 17.5752 27.3488 17.6758 27.4811C17.7763 27.6132 17.7473 27.7991 17.611 27.8961C15.9686 28.8177 14.7332 29.5512 12.9189 30.1556C12.7498 30.1458 12.6207 30.0052 12.6304 29.8415C12.6401 29.6777 12.7852 29.5529 12.9542 29.5627Z" fill="white"/>
<path fill-rule="evenodd" clip-rule="evenodd" d="M9.66252 36.7096C10.2888 33.5453 16.0452 17.5248 15.3181 15.9532C15.3159 15.9486 15.3134 15.9439 15.3106 15.9391C13.0256 16.1216 4.69258 30.4771 3.60944 33.2338C3.51211 33.4816 3.41127 33.7447 3.30802 34.0198L3.39168 33.9773C5.74387 32.7684 8.44419 31.1626 10.7889 30.1943C10.9573 30.1766 11.1087 30.2944 11.1273 30.4575C11.1459 30.6205 11.0246 30.767 10.8562 30.7848C8.44338 31.9827 6.07633 33.2705 3.68055 34.5017C3.45597 34.6171 3.23158 34.7232 3.01222 34.8218C2.56236 36.0618 2.08748 37.4586 1.66704 38.7634C1.53697 39.7702 1.10006 40.8601 0.851571 41.3348L0.38925 41.3445C0.363237 41.2767 0.367757 41.1421 0.397387 40.9531L0.380712 40.9534L0.351787 40.9846C0.374687 40.9201 0.405519 40.829 0.441476 40.718C0.530666 40.2941 0.700411 39.6982 0.918264 39.0097C1.07053 38.3458 1.15992 37.7293 1.03899 37.5236C-1.21698 35.9661 0.62558 35.2615 2.54468 34.3834C3.08253 32.9505 3.55178 31.7712 3.71199 31.4269C4.61715 29.4818 14.1938 13.0495 15.8315 15.6265C16.9047 17.3155 10.9391 33.4748 10.2758 36.709C10.2762 36.8729 10.1394 37.0061 9.97006 37.0063C9.80072 37.0064 9.66302 36.8735 9.66252 36.7096ZM2.26084 35.1461C0.887629 35.7239 0.015817 36.0788 1.1779 36.8915C1.3159 36.9881 1.42237 37.1133 1.50242 37.2598C1.74548 36.5604 2.00602 35.837 2.26084 35.1461Z" fill="white"/>
<path fill-rule="evenodd" clip-rule="evenodd" d="M54.3079 27.1923C54.7386 25.2589 55.2631 26.2807 55.8884 26.7334C56.6756 25.3467 58.0143 25.2647 57.7817 26.0407C57.3571 27.4573 56.756 27.654 56.2194 27.4801C55.6361 29.0426 55.619 31.0797 58.3123 28.6813C58.1998 27.4529 58.8773 25.8355 60.2724 25.5471C61.9586 25.1987 60.5516 27.3639 58.8163 28.9037C58.9347 29.4965 59.495 29.7358 60.8155 28.9481C61.3352 28.6382 61.6538 28.3348 61.8018 27.7292C61.8227 27.5703 61.9598 27.4592 62.1079 27.481C62.2561 27.5028 62.3592 27.6495 62.3383 27.8084C62.2062 28.3511 62.0714 28.6652 61.6481 29.0374C59.8256 30.6392 58.7726 30.2298 58.4274 29.2341C56.9437 30.4338 55.3725 31.03 55.345 29.1697C55.3331 28.3635 55.4647 27.7066 55.6727 27.1847C55.3631 26.9608 55.1233 26.7084 55.0272 26.689C54.9231 26.7989 54.8609 27.2039 54.8416 27.2915C54.8155 27.4497 54.675 27.5556 54.5275 27.5282C54.3802 27.5008 54.2819 27.3506 54.3079 27.1923ZM56.4777 26.8922C56.6936 26.8277 56.9196 26.6029 57.1561 26.1071C56.9473 26.1508 56.6984 26.4643 56.4777 26.8922ZM58.8372 28.198C59.3498 27.7117 60.5092 26.5572 60.4574 26.1087C59.8272 25.9542 59.034 27.1866 58.8372 28.198Z" fill="white"/>
<path d="M62.0685 24.6196C62.0761 24.8143 61.9243 24.9786 61.7294 24.9862C61.5346 24.9938 61.3702 24.842 61.3626 24.6473C61.3531 24.4083 61.3357 23.7994 61.3183 23.1399C61.2959 22.2896 61.2734 21.354 61.2677 21.0391C61.1615 15.2557 59.139 10.8708 56.0678 7.74332C53.9357 5.57215 51.2955 4.0028 48.4381 2.98959C45.5717 1.97308 42.4888 1.51581 39.4813 1.57092C34.1192 1.6693 29.0027 3.39335 25.788 6.47684L25.7723 8.73685C25.7716 8.9316 25.6128 9.0889 25.4179 9.0882C25.2231 9.0875 25.0657 8.92878 25.0664 8.73403L25.0842 6.17597L25.1882 6.07378C28.5263 2.79926 33.8764 0.967996 39.4702 0.8654C42.5609 0.808782 45.7285 1.2785 48.6733 2.32282C51.6273 3.37026 54.3602 4.99602 56.5716 7.248C59.7624 10.4973 61.8637 15.0434 61.9736 21.028C61.9792 21.3331 62.0017 22.2655 62.0242 23.1232C62.0411 23.765 62.0582 24.3653 62.0685 24.6196Z" fill="white"/>
<path d="M18.832 9.57471H32.6099L33.6006 15.3404H17.2832L18.5473 9.57471H18.832ZM32.0134 10.283H19.1167L18.1632 14.6321H32.7607L32.0134 10.283Z" fill="white"/>
<path d="M27.3791 15.9533C27.3791 15.7577 27.5378 15.5991 27.7335 15.5991C27.9291 15.5991 28.0878 15.7577 28.0878 15.9533C28.0878 16.3868 27.7496 16.753 27.2029 16.9942C26.7447 17.1964 26.1191 17.3217 25.4355 17.3217C24.7519 17.3217 24.1263 17.1964 23.6681 16.9942C23.1214 16.753 22.7832 16.3868 22.7832 15.9533C22.7832 15.7577 22.9419 15.5991 23.1376 15.5991C23.3332 15.5991 23.4919 15.7577 23.4919 15.9533C23.4919 16.0799 23.6683 16.221 23.9531 16.3467C24.3263 16.5113 24.85 16.6133 25.4355 16.6133C26.021 16.6133 26.5448 16.5113 26.9179 16.3467C27.2027 16.221 27.3791 16.0799 27.3791 15.9533Z" fill="white"/>
<path d="M61.1393 31.4064C61.1393 31.2109 61.298 31.0522 61.4937 31.0522C61.6893 31.0522 61.848 31.2109 61.848 31.4064V37.0043H40.2691C40.0735 37.0043 39.9148 36.8457 39.9148 36.6501C39.9148 36.4546 40.0735 36.296 40.2691 36.296H61.1393V31.4064ZM26.6888 36.296C26.8845 36.296 27.0432 36.4546 27.0432 36.6501C27.0432 36.8457 26.8845 37.0043 26.6888 37.0043H13.6249C13.4292 37.0043 13.2705 36.8457 13.2705 36.6501C13.2705 36.4546 13.4292 36.296 13.6249 36.296H26.6888Z" fill="white"/>
<path d="M38.8281 43.8703V38.9988H39.8013C40.1432 38.9988 40.3958 39.017 40.5591 39.0534C40.7213 39.0908 40.8617 39.1532 40.9782 39.2419C41.1274 39.3565 41.2428 39.5053 41.3243 39.6859C41.4061 39.8664 41.4475 40.0652 41.4475 40.2798C41.4475 40.5375 41.3886 40.7521 41.27 40.9248C41.1524 41.0984 40.9804 41.2188 40.755 41.2881C41.0305 41.3323 41.2493 41.4618 41.4093 41.6754C41.5694 41.8899 41.65 42.1602 41.65 42.4861C41.65 42.6814 41.6162 42.8677 41.5475 43.0447C41.4801 43.2219 41.3854 43.3741 41.2645 43.5013C41.1328 43.6364 40.9695 43.7318 40.7768 43.7874C40.583 43.8431 40.2575 43.8703 39.8013 43.8703H38.8281ZM39.3703 41.5879V43.3662H39.8013C40.0964 43.3662 40.3098 43.3536 40.4404 43.3298C40.571 43.3048 40.6756 43.2628 40.755 43.2027C40.8498 43.1322 40.9249 43.0334 40.9793 42.9062C41.0349 42.7802 41.062 42.6405 41.062 42.4872C41.062 42.3089 41.0294 42.1545 40.963 42.0239C40.8977 41.8933 40.8019 41.7911 40.6766 41.7173C40.6027 41.6707 40.5166 41.6378 40.4187 41.6174C40.3218 41.5981 40.1694 41.5879 39.9636 41.5879H39.8013H39.3703ZM39.3703 39.503V41.1314H39.8013C40.1966 41.1314 40.4752 41.0712 40.6363 40.952C40.7986 40.8327 40.8792 40.6306 40.8792 40.3467C40.8792 40.0344 40.804 39.8164 40.6537 39.6904C40.5047 39.5654 40.2194 39.503 39.8013 39.503H39.3703ZM42.4795 38.9988H43.0413V42.0307C43.0413 42.5235 43.1414 42.8846 43.3428 43.1152C43.5443 43.3457 43.8588 43.4616 44.2888 43.4616C44.7189 43.4616 45.0335 43.3457 45.235 43.1152C45.4363 42.8846 45.5365 42.5235 45.5365 42.0307V38.9988H46.0982V42.0307C46.0982 42.6894 45.948 43.1822 45.6475 43.5092C45.3459 43.8363 44.8931 43.9998 44.2878 43.9998C43.6836 43.9998 43.2318 43.8363 42.9302 43.5092C42.6298 43.1822 42.4795 42.6894 42.4795 42.0307V38.9988ZM47.2033 43.8703V38.9988H48.3007C48.613 38.9988 48.8427 39.017 48.9876 39.0534C49.1334 39.0908 49.2619 39.1532 49.373 39.2419C49.5113 39.3543 49.6179 39.5064 49.6942 39.696C49.7714 39.8857 49.8096 40.0958 49.8096 40.3263C49.8096 40.7249 49.7028 41.0292 49.4895 41.2359C49.275 41.4437 48.9625 41.547 48.5499 41.547H48.4508L50.234 43.8703H49.5287L47.8238 41.547H47.7454V43.8703H47.2033ZM47.7454 39.4894V41.1178H48.1689C48.6033 41.1178 48.894 41.0599 49.0409 40.9429C49.1879 40.8271 49.2609 40.6238 49.2609 40.3331C49.2609 40.0208 49.1856 39.8028 49.0344 39.6768C48.8831 39.5519 48.5946 39.4894 48.1689 39.4894H47.7454ZM50.699 43.8703V38.9988H53.1615V39.5303H51.2542V40.927H53.1615V41.4653H51.2542V43.332H53.1615V43.8703H50.699ZM55.5773 40.0889L54.8349 41.8808H56.3209L55.5773 40.0889ZM55.5773 38.8081L57.7013 43.8703H57.0993L56.4928 42.3782H54.6693L54.063 43.8703H53.462L55.5773 38.8081ZM58.0507 38.9988H58.6125V42.0307C58.6125 42.5235 58.7127 42.8846 58.914 43.1152C59.1155 43.3457 59.4301 43.4616 59.86 43.4616C60.2901 43.4616 60.6047 43.3457 60.8062 43.1152C61.0076 42.8846 61.1077 42.5235 61.1077 42.0307V38.9988H61.6695V42.0307C61.6695 42.6894 61.5192 43.1822 61.2188 43.5092C60.9172 43.8363 60.4643 43.9998 59.859 43.9998C59.2548 43.9998 58.803 43.8363 58.5014 43.5092C58.201 43.1822 58.0507 42.6894 58.0507 42.0307V38.9988Z" fill="white"/>
</svg>
