<svg width="32" height="32" viewBox="0 0 32 32" fill="none" xmlns="http://www.w3.org/2000/svg">
<path d="M5.04117 5.03969L5.04106 5.0398C2.13423 7.94672 0.500831 11.8891 0.5 16L5.04117 5.03969ZM5.04117 5.03969C7.94482 2.1341 11.8901 0.5 16 0.5C20.1099 0.5 24.0552 2.1341 26.9588 5.03969L26.959 5.03983C29.8652 7.94559 31.5 11.8909 31.5 16C31.5 20.1091 29.8652 24.0544 26.959 26.9602L26.9588 26.9603C24.0552 29.8659 20.1099 31.5 16 31.5C11.8901 31.5 7.94482 29.8659 5.04117 26.9603L5.04102 26.9602M5.04117 5.03969L5.04102 26.9602M5.04102 26.9602C2.1348 24.0544 0.500026 20.1091 0.5 16.0001L5.04102 26.9602Z" stroke="white"/>
</svg>
